<svg width="24" height="18" viewBox="0 0 24 18" xmlns="http://www.w3.org/2000/svg"><title>A9958C88-18B2-4D22-A4CF-3F5D23D2E9EC</title><path d="M24 12v2.571a.412.412 0 0 1-.127.302.412.412 0 0 1-.302.127H5.143v2.571a.412.412 0 0 1-.127.302.412.412 0 0 1-.302.127.503.503 0 0 1-.321-.134L.12 13.58A.4.4 0 0 1 0 13.286c0-.125.04-.228.12-.308l4.286-4.286c.08-.08.183-.12.308-.12.116 0 .217.042.302.127A.412.412 0 0 1 5.143 9v2.571H23.57c.117 0 .217.043.302.128A.412.412 0 0 1 24 12zm0-7.286c0 .125-.04.228-.12.308l-4.286 4.286a.417.417 0 0 1-.308.12.412.412 0 0 1-.302-.127.412.412 0 0 1-.127-.301V6.429H.43A.412.412 0 0 1 .127 6.3.412.412 0 0 1 0 6V3.429c0-.117.042-.217.127-.302A.412.412 0 0 1 .43 3h18.428V.429c0-.125.04-.228.12-.308.081-.08.184-.121.309-.121.107 0 .214.045.321.134l4.272 4.272c.08.08.121.183.121.308z" fill="#1A9BDB" fill-rule="evenodd"/></svg>