<svg width="18" height="20" viewBox="0 0 18 20" xmlns="http://www.w3.org/2000/svg"><title>6E737B6D-9E0A-4252-9F88-CBE5D1EECACA</title><path d="M.5.992C.5.444.956 0 1.502 0h9.996c.553 0 1.315.313 1.708.706l3.588 3.588c.39.39.706 1.155.706 1.713v12.986c0 .556-.455 1.007-1 1.007h-15c-.552 0-1-.455-1-.992V.992zM2 1.5v17h14V7h-4a1.5 1.5 0 0 1-1.5-1.5v-4H2zm13.832 4a.657.657 0 0 0-.098-.145l-3.589-3.589A.66.66 0 0 0 12 1.667V5.5h3.832zM4.5 15.75c0-.414.342-.75.752-.75h7.496a.75.75 0 1 1 0 1.5H5.252a.75.75 0 0 1-.752-.75zm0-3c0-.414.342-.75.752-.75h7.496a.75.75 0 1 1 0 1.5H5.252a.75.75 0 0 1-.752-.75zm0-3c0-.414.342-.75.752-.75h7.496a.75.75 0 1 1 0 1.5H5.252a.75.75 0 0 1-.752-.75z" fill="#1A9BDB" fill-rule="evenodd"/></svg>