<svg xmlns="http://www.w3.org/2000/svg" width="24" height="24" viewBox="0 0 24 24">
    <g fill="#1A9BDB" fill-rule="evenodd">
        <path d="M11.725 8.157l-5.732 3.85a.579.579 0 0 1-.614.02.647.647 0 0 1-.314-.559V7.58c0-.438.214-.845.565-1.079l5.446-3.661a1.157 1.157 0 0 1 1.3 0l5.45 3.666c.347.233.559.638.56 1.074v3.888c0 .233-.12.448-.314.56a.579.579 0 0 1-.617-.02l-5.73-3.851zM11.725 17.87l-5.732 3.851a.579.579 0 0 1-.614.019.647.647 0 0 1-.314-.558v-3.888c0-.438.214-.845.565-1.08l5.45-3.66a1.157 1.157 0 0 1 1.3 0l5.45 3.665c.346.235.556.64.556 1.075v3.888c0 .233-.12.447-.314.56a.579.579 0 0 1-.617-.02l-5.73-3.852z"/>
    </g>
</svg>
