<svg width="20" height="21" viewBox="0 0 20 21" xmlns="http://www.w3.org/2000/svg"><title>D39FEFAA-2D82-4FFF-9899-90FFA8B3D825</title><path d="M10.179 19.786c0-.12-.06-.179-.179-.179-.439 0-.817-.158-1.133-.474A1.546 1.546 0 0 1 8.393 18c0-.119-.06-.179-.179-.179s-.178.06-.178.179c0 .543.191 1.006.574 1.39.384.383.847.574 1.39.574.12 0 .179-.06.179-.178zM2.746 16.57h14.508c-1.979-2.232-2.968-5.327-2.968-9.285 0-.38-.09-.77-.268-1.172a4.264 4.264 0 0 0-.77-1.15c-.335-.364-.787-.664-1.356-.898A4.923 4.923 0 0 0 10 3.714c-.692 0-1.323.117-1.892.352-.569.234-1.02.534-1.356.898a4.264 4.264 0 0 0-.77 1.15 2.876 2.876 0 0 0-.268 1.172c0 3.958-.99 7.053-2.968 9.285zm16.54 0c0 .387-.142.722-.424 1.005a1.373 1.373 0 0 1-1.005.424h-5c0 .789-.279 1.462-.837 2.02a2.753 2.753 0 0 1-2.02.837 2.753 2.753 0 0 1-2.02-.837A2.753 2.753 0 0 1 7.143 18h-5c-.387 0-.722-.141-1.005-.424a1.373 1.373 0 0 1-.424-1.005c.372-.312.71-.64 1.016-.982.305-.342.621-.787.949-1.333.327-.547.604-1.137.831-1.77.227-.632.413-1.398.558-2.299.145-.9.218-1.867.218-2.901 0-1.131.435-2.182 1.306-3.153.87-.971 2.012-1.56 3.426-1.77a1.111 1.111 0 0 1-.09-.434c0-.298.105-.551.313-.76.208-.208.461-.312.759-.312s.55.104.759.313c.208.208.312.461.312.759 0 .148-.03.293-.089.435 1.414.208 2.556.798 3.426 1.769.871.97 1.306 2.022 1.306 3.153 0 1.034.073 2.001.218 2.902.145.9.331 1.666.558 2.299.227.632.504 1.222.831 1.769.328.546.644.991.95 1.333.304.343.643.67 1.015.982z" fill="#1A9BDB" fill-rule="evenodd"/></svg>