<svg width="26" height="21" viewBox="0 0 26 21" xmlns="http://www.w3.org/2000/svg"><title>B1E2FC5C-B236-49CA-BA07-2F2E590EFAE2</title><path d="M6 4.286c0-.474-.167-.878-.502-1.212a1.652 1.652 0 0 0-1.212-.503c-.474 0-.878.168-1.212.503a1.652 1.652 0 0 0-.503 1.212c0 .473.168.877.503 1.212.334.335.738.502 1.212.502.473 0 .877-.167 1.212-.502.335-.335.502-.74.502-1.212zM20.29 12c0 .473-.165.875-.495 1.205l-6.576 6.59c-.348.33-.755.495-1.219.495a1.64 1.64 0 0 1-1.205-.495l-9.576-9.59c-.34-.33-.627-.78-.864-1.352C.118 8.28 0 7.759 0 7.286V1.714C0 1.25.17.848.509.51.849.169 1.25 0 1.714 0h5.572c.473 0 .995.118 1.567.355.571.237 1.026.524 1.366.864l9.576 9.562c.33.348.495.755.495 1.219zm5.143 0c0 .473-.165.875-.495 1.205l-6.576 6.59c-.349.33-.755.495-1.22.495-.32 0-.584-.062-.79-.187-.205-.125-.441-.326-.71-.603l6.296-6.295c.33-.33.495-.732.495-1.205 0-.464-.165-.87-.495-1.219L12.361 1.22c-.34-.34-.795-.627-1.366-.864C10.424.118 9.902 0 9.429 0h3c.473 0 .995.118 1.567.355.571.237 1.026.524 1.366.864l9.575 9.562c.33.348.496.755.496 1.219z" fill="#1A9BDB" fill-rule="evenodd"/></svg>