<svg xmlns="http://www.w3.org/2000/svg" width="19" height="14" viewBox="0 0 19 14">
    <g fill="#3F4547" fill-rule="evenodd">
        <path d="M19 .25v1.5c0 .068-.062.126-.186.176a1.18 1.18 0 0 1-.439.074h-3.75a1.18 1.18 0 0 1-.44-.074c-.123-.05-.185-.108-.185-.176V.25c0-.068.062-.126.186-.176.123-.05.27-.074.439-.074h3.75c.17 0 .316.025.44.074.123.05.185.108.185.176zM12 .25v1.5a.23.23 0 0 1-.081.176.274.274 0 0 1-.192.074H.273a.274.274 0 0 1-.192-.074A.23.23 0 0 1 0 1.75V.25A.23.23 0 0 1 .081.074.274.274 0 0 1 .273 0h11.454c.074 0 .138.025.192.074A.23.23 0 0 1 12 .25zM19 4.25v1.5c0 .068-.062.126-.186.176a1.18 1.18 0 0 1-.439.074h-3.75a1.18 1.18 0 0 1-.44-.074c-.123-.05-.185-.108-.185-.176v-1.5c0-.068.062-.126.186-.176.123-.05.27-.074.439-.074h3.75c.17 0 .316.025.44.074.123.05.185.108.185.176zM12 4.25v1.5a.23.23 0 0 1-.081.176.274.274 0 0 1-.192.074H.273a.274.274 0 0 1-.192-.074A.23.23 0 0 1 0 5.75v-1.5a.23.23 0 0 1 .081-.176A.274.274 0 0 1 .273 4h11.454c.074 0 .138.025.192.074A.23.23 0 0 1 12 4.25zM19 8.25v1.5c0 .068-.062.126-.186.176a1.18 1.18 0 0 1-.439.074h-3.75a1.18 1.18 0 0 1-.44-.074c-.123-.05-.185-.108-.185-.176v-1.5c0-.068.062-.126.186-.176.123-.05.27-.074.439-.074h3.75c.17 0 .316.025.44.074.123.05.185.108.185.176zM12 8.25v1.5a.23.23 0 0 1-.081.176.274.274 0 0 1-.192.074H.273a.274.274 0 0 1-.192-.074A.23.23 0 0 1 0 9.75v-1.5a.23.23 0 0 1 .081-.176A.274.274 0 0 1 .273 8h11.454c.074 0 .138.025.192.074A.23.23 0 0 1 12 8.25zM19 12.25v1.5c0 .068-.062.126-.186.176a1.18 1.18 0 0 1-.439.074h-3.75a1.18 1.18 0 0 1-.44-.074c-.123-.05-.185-.108-.185-.176v-1.5c0-.068.062-.126.186-.176.123-.05.27-.074.439-.074h3.75c.17 0 .316.025.44.074.123.05.185.108.185.176zM12 12.25v1.5a.23.23 0 0 1-.081.176.274.274 0 0 1-.192.074H.273a.274.274 0 0 1-.192-.074A.23.23 0 0 1 0 13.75v-1.5a.23.23 0 0 1 .081-.176A.274.274 0 0 1 .273 12h11.454c.074 0 .138.025.192.074a.23.23 0 0 1 .081.176z"/>
    </g>
</svg>
