<svg width="21" height="24" viewBox="0 0 21 24" xmlns="http://www.w3.org/2000/svg"><title>733F1A34-4459-420E-8702-78097D8DD4B2</title><path d="M19.66 6.375c.126.125.25.286.376.482h-6.322V.536c.197.125.357.25.482.375l5.465 5.464zm-6.374 2.196h7.285v14.143c0 .357-.125.661-.375.911a1.24 1.24 0 0 1-.91.375h-18a1.24 1.24 0 0 1-.911-.375 1.24 1.24 0 0 1-.375-.91V1.284C0 .93.125.626.375.376S.929 0 1.285 0H12v7.286c0 .357.125.66.375.91s.554.375.91.375zm2.143 9.858v-.858a.417.417 0 0 0-.121-.308.417.417 0 0 0-.308-.12H5.571a.417.417 0 0 0-.308.12.417.417 0 0 0-.12.308v.858c0 .125.04.227.12.308.08.08.183.12.308.12H15c.125 0 .228-.04.308-.12.08-.08.12-.183.12-.308zm0-3.429v-.857a.417.417 0 0 0-.121-.308.417.417 0 0 0-.308-.12H5.571a.417.417 0 0 0-.308.12.417.417 0 0 0-.12.308V15c0 .125.04.228.12.308.08.08.183.12.308.12H15c.125 0 .228-.04.308-.12.08-.08.12-.183.12-.308zm0-3.429v-.857a.417.417 0 0 0-.121-.308.417.417 0 0 0-.308-.12H5.571a.417.417 0 0 0-.308.12.417.417 0 0 0-.12.308v.857c0 .125.04.228.12.308.08.08.183.121.308.121H15c.125 0 .228-.04.308-.12.08-.08.12-.184.12-.309z" fill="#1A9BDB" fill-rule="evenodd"/></svg>