<?xml version="1.0" encoding="UTF-8" standalone="no"?>
<svg width="12px" height="12px" viewBox="0 0 12 12" version="1.1" xmlns="http://www.w3.org/2000/svg" xmlns:xlink="http://www.w3.org/1999/xlink">
    <!-- Generator: sketchtool 39.1 (31720) - http://www.bohemiancoding.com/sketch -->
    <title>352EB944-9747-4163-919E-865822DF1517</title>
    <desc>Created with sketchtool.</desc>
    <defs></defs>
    <g id="Symbols" stroke="none" stroke-width="1" fill="none" fill-rule="evenodd">
        <g id="SearchBar" transform="translate(-265.000000, -84.000000)" fill="#1A9BDB">
            <g id="CurrentLocation" transform="translate(259.000000, 78.000000)">
                <path d="M12,17.75 C8.82436269,17.75 6.25,15.1756373 6.25,12 C6.25,8.82436269 8.82436269,6.25 12,6.25 C15.1756373,6.25 17.75,8.82436269 17.75,12 C17.75,15.1756373 15.1756373,17.75 12,17.75 Z M12.75,16.1840334 L12.75,15.5070267 C12.75,15.0941381 12.4142136,14.75 12,14.75 C11.5828986,14.75 11.25,15.0889324 11.25,15.5070267 L11.25,16.1840334 C9.50394881,15.8731479 8.12685214,14.4960512 7.81596658,12.75 L8.49297333,12.75 C8.90586185,12.75 9.25,12.4142136 9.25,12 C9.25,11.5828986 8.91106761,11.25 8.49297333,11.25 L7.81596658,11.25 C8.12685214,9.50394881 9.50394881,8.12685214 11.25,7.81596658 L11.25,8.49297333 C11.25,8.90586185 11.5857864,9.25 12,9.25 C12.4171014,9.25 12.75,8.91106761 12.75,8.49297333 L12.75,7.81596658 C14.4960512,8.12685214 15.8731479,9.50394881 16.1840334,11.25 L15.5070267,11.25 C15.0941381,11.25 14.75,11.5857864 14.75,12 C14.75,12.4171014 15.0889324,12.75 15.5070267,12.75 L16.1840334,12.75 C15.8731479,14.4960512 14.4960512,15.8731479 12.75,16.1840334 Z M12,13.25 C12.6903559,13.25 13.25,12.6903559 13.25,12 C13.25,11.3096441 12.6903559,10.75 12,10.75 C11.3096441,10.75 10.75,11.3096441 10.75,12 C10.75,12.6903559 11.3096441,13.25 12,13.25 Z"></path>
            </g>
        </g>
    </g>
</svg>