<svg width="21" height="21" viewBox="0 0 21 21" xmlns="http://www.w3.org/2000/svg"><title>8AE7C6BE-0DD0-47EC-BC3A-2C97C84F793E</title><path d="M20.571 10.286c0 1.866-.46 3.587-1.379 5.163a10.24 10.24 0 0 1-3.743 3.743c-1.576.92-3.297 1.38-5.163 1.38s-3.587-.46-5.163-1.38a10.24 10.24 0 0 1-3.744-3.743C.46 13.873 0 12.152 0 10.286s.46-3.587 1.38-5.163a10.24 10.24 0 0 1 3.743-3.744C6.699.46 8.42 0 10.286 0s3.587.46 5.163 1.38a10.24 10.24 0 0 1 3.743 3.743c.92 1.576 1.38 3.297 1.38 5.163zm-12-3.429c0-.473-.167-.877-.502-1.212a1.652 1.652 0 0 0-1.212-.502c-.473 0-.877.167-1.212.502a1.652 1.652 0 0 0-.502 1.212c0 .473.167.877.502 1.212.335.335.739.502 1.212.502s.877-.167 1.212-.502c.335-.335.502-.739.502-1.212zm6.858 0c0-.473-.168-.877-.503-1.212a1.652 1.652 0 0 0-1.212-.502c-.473 0-.877.167-1.212.502A1.652 1.652 0 0 0 12 6.857c0 .473.167.877.502 1.212.335.335.74.502 1.212.502.473 0 .878-.167 1.212-.502.335-.335.503-.739.503-1.212zm-.242 5.826a.824.824 0 0 0-.053-.65.815.815 0 0 0-.496-.421.842.842 0 0 0-.656.053.813.813 0 0 0-.428.51 3.33 3.33 0 0 1-1.24 1.733 3.348 3.348 0 0 1-2.028.663c-.75 0-1.427-.22-2.03-.663a3.33 3.33 0 0 1-1.238-1.734.817.817 0 0 0-.422-.509.824.824 0 0 0-.65-.053.817.817 0 0 0-.508.421.824.824 0 0 0-.054.65c.33 1.08.946 1.95 1.848 2.612.902.66 1.92.99 3.054.99s2.152-.33 3.053-.99a4.946 4.946 0 0 0 1.848-2.612z" fill="#1A9BDB" fill-rule="evenodd"/></svg>