<svg xmlns="http://www.w3.org/2000/svg" width="24" height="24" viewBox="0 0 24 24">
    <g fill="#0A83C0" fill-rule="nonzero" transform="matrix(-1 0 0 1 24 4)">
        <path d="M23.75 2.316C23.749 1.374 22.966.61 22 .609h-9.5a.74.74 0 0 0-.75.732v6.825a.247.247 0 0 1-.25.243h-1a.247.247 0 0 1-.25-.243V3.29a.74.74 0 0 0-.75-.732H4C1.93 2.562.253 4.197.25 6.216v5.85c.001.942.784 1.705 1.75 1.706h2.3a.253.253 0 0 0 .192-.087.24.24 0 0 0 .055-.199 2.522 2.522 0 0 1-.042-.445c0-1.616 1.343-2.925 3-2.925s3 1.31 3 2.925c0 .15-.015.298-.042.445-.012.07.008.141.055.195a.255.255 0 0 0 .192.087h4.09a.253.253 0 0 0 .192-.087.24.24 0 0 0 .055-.199 2.522 2.522 0 0 1-.047-.441c0-1.616 1.343-2.925 3-2.925s3 1.31 3 2.925c0 .15-.015.298-.042.445-.012.07.008.141.055.195a.255.255 0 0 0 .192.087H23a.74.74 0 0 0 .75-.731V2.316zm-22 3.9C1.752 5.005 2.758 4.023 4 4.022h2c.138 0 .25.109.25.244V7.19a.247.247 0 0 1-.25.243H2a.247.247 0 0 1-.25-.243v-.975z"/>
        <ellipse cx="7.5" cy="13.041" rx="2" ry="1.95"/>
        <ellipse cx="18" cy="13.041" rx="2" ry="1.95"/>
    </g>
</svg>
