<svg width="36" height="36" viewBox="0 0 36 36" xmlns="http://www.w3.org/2000/svg"><title>Download</title><path d="M5.497 3h25.006A2.502 2.502 0 0 1 33 5.497v25.006A2.502 2.502 0 0 1 30.503 33H5.497A2.502 2.502 0 0 1 3 30.503V5.497A2.502 2.502 0 0 1 5.497 3zm17.442 15.94a1.5 1.5 0 0 1 2.122 2.12l-6 6a1.5 1.5 0 0 1-2.122 0l-6-6a1.5 1.5 0 0 1 2.122-2.12l3.439 3.439V10a1.5 1.5 0 0 1 3 0v12.379l3.44-3.44zM0 30.502A5.502 5.502 0 0 0 5.497 36h25.006A5.502 5.502 0 0 0 36 30.503V5.497A5.502 5.502 0 0 0 30.503 0H5.497A5.502 5.502 0 0 0 0 5.497v25.006z" fill="#1AABDB" fill-rule="evenodd"/></svg>