<svg width="21" height="24" viewBox="0 0 21 24" xmlns="http://www.w3.org/2000/svg"><title>377C5753-0DBF-4845-A783-C54D9749586B</title><path d="M18.857 1.714c0 2.33-.475 4.39-1.426 6.181-.951 1.79-2.14 3.159-3.57 4.105 1.43.946 2.619 2.315 3.57 4.105.95 1.79 1.426 3.85 1.426 6.18h1.286c.125 0 .228.04.308.121.08.08.12.183.12.308v.857c0 .125-.04.228-.12.308a.417.417 0 0 1-.308.121H.429a.417.417 0 0 1-.308-.12A.417.417 0 0 1 0 23.57v-.857c0-.125.04-.227.12-.308.08-.08.184-.12.309-.12h1.285c0-2.33.476-4.39 1.427-6.181.95-1.79 2.14-3.159 3.569-4.105-1.429-.946-2.618-2.315-3.57-4.105-.95-1.79-1.426-3.85-1.426-6.18H.43a.417.417 0 0 1-.308-.121A.417.417 0 0 1 0 1.286V.429C0 .304.04.2.12.12.2.04.305 0 .43 0h19.714c.125 0 .228.04.308.12.08.08.12.184.12.309v.857c0 .125-.04.227-.12.308a.417.417 0 0 1-.308.12h-1.286zm-1.714 0H3.429c0 .59.04 1.161.12 1.715h13.473c.08-.545.12-1.116.12-1.715zm0 20.572c0-1.161-.152-2.275-.456-3.342-.303-1.067-.707-1.995-1.212-2.786a9.968 9.968 0 0 0-1.694-2.035c-.625-.567-1.277-.99-1.955-1.266h-3.08c-.679.277-1.33.699-1.956 1.266a9.968 9.968 0 0 0-1.694 2.035c-.504.79-.908 1.72-1.212 2.786a12.152 12.152 0 0 0-.455 3.342h13.714z" fill="#1A9BDB" fill-rule="evenodd"/></svg>