<svg width="31" height="21" viewBox="0 0 31 21" xmlns="http://www.w3.org/2000/svg"><title>C1F8035C-B7F6-4146-BEC8-45B4B94EFC3D</title><path d="M0 18.429v-8.143h30.857v8.143c0 .589-.21 1.093-.63 1.513-.419.42-.923.63-1.513.63H2.143c-.59 0-1.094-.21-1.514-.63-.42-.42-.629-.924-.629-1.513zm8.571-3v1.714h5.143v-1.714H8.571zm-5.142 0v1.714h3.428v-1.714H3.43zM28.714 0c.59 0 1.094.21 1.514.63.42.42.63.924.63 1.513v3H0v-3c0-.59.21-1.094.63-1.514C1.05.21 1.553 0 2.142 0h26.571z" fill="#1A9BDB" fill-rule="evenodd"/></svg>