<svg width="40" height="40" viewBox="0 0 40 40" xmlns="http://www.w3.org/2000/svg"><title>FAQ</title><path d="M20 40c11.046 0 20-8.954 20-20S31.046 0 20 0 0 8.954 0 20s8.954 20 20 20zm0-3c-9.389 0-17-7.611-17-17S10.611 3 20 3s17 7.611 17 17-7.611 17-17 17zm1.875-9.5a1.875 1.875 0 1 1-3.75 0 1.875 1.875 0 0 1 3.75 0zM20.14 11.07c-3.27 0-5.386 2.325-5.386 5.925H15h2.77c0-2.229 1.245-3.019 2.306-3.019.953 0 1.962.63 2.048 1.839.093 1.27-.585 1.915-1.443 2.73-2.118 2.016-2.157 2.991-2.148 5.205h3.009c-.02-.997.045-1.806 1.402-3.27 1.018-1.095 2.28-2.456 2.306-4.53.015-1.387-.426-2.58-1.281-3.447-.917-.924-2.277-1.433-3.83-1.433z" fill="#1AABDB" fill-rule="evenodd"/></svg>