<svg width="22" height="16" viewBox="0 0 22 16" xmlns="http://www.w3.org/2000/svg"><title>50D84700-4AED-41AB-87BE-E22B23AE3D79</title><path d="M.757 14a.752.752 0 0 0-.757.75c0 .414.346.75.757.75h20.486a.752.752 0 0 0 .757-.75.758.758 0 0 0-.757-.75H.757zm0-7A.752.752 0 0 0 0 7.75c0 .414.346.75.757.75h20.486A.752.752 0 0 0 22 7.75a.758.758 0 0 0-.757-.75H.757zm0-7A.752.752 0 0 0 0 .75c0 .414.346.75.757.75h20.486A.752.752 0 0 0 22 .75a.758.758 0 0 0-.757-.75H.757z" fill="#FFF" fill-rule="evenodd"/></svg>