<svg width="48" height="48" viewBox="0 0 48 48" xmlns="http://www.w3.org/2000/svg"><title>Help</title><path d="M24 48c13.255 0 24-10.745 24-24S37.255 0 24 0 0 10.745 0 24s10.745 24 24 24zm0-15a9 9 0 1 0 0-18 9 9 0 0 0 0 18zm9.48-1.641l6.393 6.392c6.836-7.874 6.836-19.628 0-27.502L33.48 16.64a12.006 12.006 0 0 1 0 14.718zm-16.839-16.84l-6.392-6.392c7.874-6.836 19.628-6.836 27.502 0L31.36 14.52a12.006 12.006 0 0 0-14.718 0zm-2.121 2.122l-6.393-6.392c-6.836 7.874-6.836 19.628 0 27.502l6.393-6.392a12.006 12.006 0 0 1 0-14.718zm16.839 16.84l6.392 6.392c-7.874 6.836-19.628 6.836-27.502 0l6.392-6.393a12.006 12.006 0 0 0 14.718 0z" fill="#1AABDB" fill-rule="evenodd"/></svg>