<?xml version="1.0" encoding="UTF-8"?>
<svg width="18px" height="15px" viewBox="0 0 18 15" version="1.1" xmlns="http://www.w3.org/2000/svg" xmlns:xlink="http://www.w3.org/1999/xlink">
    <!-- Generator: sketchtool 42 (36781) - http://www.bohemiancoding.com/sketch -->
    <title>DD3274DD-7232-4CB5-B728-3F3736079A61</title>
    <desc>Created with sketchtool.</desc>
    <defs></defs>
    <g id="New-offer-model---third-iteration" stroke="none" stroke-width="1" fill="none" fill-rule="evenodd">
        <g id="New-offer-model---buyer-receives-a-new-offer" transform="translate(-580.000000, -618.000000)" fill="#FFC400">
            <path d="M584.25,621.678571 C584.25,621.343376 584.131419,621.0572 583.894252,620.820033 C583.657086,620.582867 583.370909,620.464286 583.035714,620.464286 C582.700519,620.464286 582.414343,620.582867 582.177176,620.820033 C581.94001,621.0572 581.821429,621.343376 581.821429,621.678571 C581.821429,622.013767 581.94001,622.299943 582.177176,622.537109 C582.414343,622.774276 582.700519,622.892857 583.035714,622.892857 C583.370909,622.892857 583.657086,622.774276 583.894252,622.537109 C584.131419,622.299943 584.25,622.013767 584.25,621.678571 Z M594.37221,627.142857 C594.37221,627.478052 594.25521,627.762648 594.021205,627.996652 L589.363281,632.664062 C589.116628,632.898067 588.828871,633.015067 588.5,633.015067 C588.164805,633.015067 587.88021,632.898067 587.646205,632.664062 L580.863281,625.871652 C580.622953,625.637648 580.418993,625.318268 580.251395,624.913504 C580.083798,624.508741 580,624.138767 580,623.803571 L580,619.857143 C580,619.528272 580.120162,619.243677 580.360491,619.003348 C580.60082,618.76302 580.885415,618.642857 581.214286,618.642857 L585.160714,618.642857 C585.495909,618.642857 585.865883,618.726655 586.270647,618.894252 C586.675411,619.06185 586.997953,619.26581 587.238281,619.506138 L594.021205,626.279576 C594.25521,626.526229 594.37221,626.813986 594.37221,627.142857 Z M598.015067,627.142857 C598.015067,627.478052 597.898067,627.762648 597.664062,627.996652 L593.006138,632.664062 C592.759485,632.898067 592.471728,633.015067 592.142857,633.015067 C591.915177,633.015067 591.728609,632.970797 591.583147,632.882254 C591.437685,632.793712 591.27009,632.651415 591.080357,632.455357 L595.539062,627.996652 C595.773067,627.762648 595.890067,627.478052 595.890067,627.142857 C595.890067,626.813986 595.773067,626.526229 595.539062,626.279576 L588.756138,619.506138 C588.51581,619.26581 588.193268,619.06185 587.788504,618.894252 C587.383741,618.726655 587.013767,618.642857 586.678571,618.642857 L588.803571,618.642857 C589.138767,618.642857 589.508741,618.726655 589.913504,618.894252 C590.318268,619.06185 590.64081,619.26581 590.881138,619.506138 L597.664062,626.279576 C597.898067,626.526229 598.015067,626.813986 598.015067,627.142857 Z" id="Item"></path>
        </g>
    </g>
</svg>