<?xml version="1.0" encoding="UTF-8" standalone="no"?>
<svg width="12px" height="16px" viewBox="0 0 12 16" version="1.1" xmlns="http://www.w3.org/2000/svg" xmlns:xlink="http://www.w3.org/1999/xlink">
    <!-- Generator: sketchtool 41 (35326) - http://www.bohemiancoding.com/sketch -->
    <title>830AFB0C-A5F8-4656-92FD-12D66818FED3</title>
    <desc>Created with sketchtool.</desc>
    <defs></defs>
    <g id="Symbols" stroke="none" stroke-width="1" fill="none" fill-rule="evenodd">
        <g id="Payment-methods-overview" transform="translate(-393.000000, -7.000000)" fill="#3F4547">
            <g id="Group">
                <path d="M403.5,12.3333333 L402.75,12.3333333 L402.75,10.8095238 C402.75,8.70666667 401.07,7 399,7 C396.93,7 395.25,8.70666667 395.25,10.8095238 L395.25,12.3333333 L394.5,12.3333333 C393.675,12.3333333 393,13.0190476 393,13.8571429 L393,21.4761905 C393,22.3142857 393.675,23 394.5,23 L403.5,23 C404.325,23 405,22.3142857 405,21.4761905 L405,13.8571429 C405,13.0190476 404.325,12.3333333 403.5,12.3333333 L403.5,12.3333333 Z M399,19.1904762 C398.175,19.1904762 397.5,18.5047619 397.5,17.6666667 C397.5,16.8285714 398.175,16.1428571 399,16.1428571 C399.825,16.1428571 400.5,16.8285714 400.5,17.6666667 C400.5,18.5047619 399.825,19.1904762 399,19.1904762 L399,19.1904762 Z M401.325,12.3333333 L396.675,12.3333333 L396.675,10.8095238 C396.675,9.50666667 397.7175,8.44761905 399,8.44761905 C400.2825,8.44761905 401.325,9.50666667 401.325,10.8095238 L401.325,12.3333333 L401.325,12.3333333 Z" id="Lock"></path>
            </g>
        </g>
    </g>
</svg>