<svg width="120" height="120" viewBox="0 0 120 120" xmlns="http://www.w3.org/2000/svg"><title>Logo@0.5x</title><g fill="none" fill-rule="evenodd"><path fill="#1AABDB" d="M0 0h120v120H0z"/><path d="M64.537 62.654a5.703 5.703 0 0 1-1.75-.908L47.7 69.568c.342 1.247.36 2.6-.013 3.924l22.438 7.07a10.976 10.976 0 0 1 3.871-4.115l-7.066-13.569a5.669 5.669 0 0 1-2.394-.224zm15.577-10.2c-1.042 0-2.065.092-3.06.265.163-.957.248-1.941.248-2.947 0-9.811-7.976-17.764-17.815-17.764-9.838 0-17.81 7.953-17.81 17.764 0 .941.072 1.864.21 2.768a17.41 17.41 0 0 0-1.748-.087c-9.837 0-17.812 7.951-17.812 17.763 0 9.56 7.575 17.352 17.062 17.745v.02H69.31a10.925 10.925 0 0 1-.19-5.783l-22.723-7.159a7.355 7.355 0 0 1-7.98 2.451c-3.86-1.216-6.004-5.328-4.785-9.178 1.223-3.854 5.343-5.989 9.205-4.773a7.285 7.285 0 0 1 3.602 2.512l14.598-7.563a5.614 5.614 0 0 1-.197-3.933c.944-2.98 4.13-4.631 7.12-3.69a5.657 5.657 0 0 1 3.704 7.1 5.63 5.63 0 0 1-2.098 2.883l7.002 13.428a10.981 10.981 0 0 1 14.23 10.16c4.33-3.239 7.137-8.404 7.137-14.22 0-9.812-7.98-17.763-17.82-17.763z" fill="#FFF"/></g></svg>