<svg xmlns="http://www.w3.org/2000/svg" width="635.969" height="183.999" viewBox="0 0 635.969 183.999"><g fill="#41627F"><path d="M293.427 76.938c3.06 1.114 5.702 2.745 7.946 4.887 2.245 2.131 4 4.762 5.263 7.882 1.265 3.113 1.893 7.86 1.893 11.909 0 .846-.137 1.422-.418 1.726-.284.311-.722.47-1.317.47H260.69v1.095c0 4.311.554 6.938 1.67 10.207 1.107 3.279 2.696 6.024 4.743 8.238 2.055 2.214 4.531 3.875 7.435 4.994 2.912 1.118 6.162 1.68 9.752 1.68 3.207 0 5.984-.323 8.334-.959 2.35-.637 4.333-1.346 5.931-2.13 1.61-.792 2.873-1.506 3.812-2.143.95-.637 1.629-.948 2.058-.948.552 0 .979.186 1.284.573l1.659 1.85c-1.023 1.16-2.381 2.233-4.072 3.238-1.681 1.001-3.56 1.858-5.637 2.566a44.13 44.13 0 0 1-6.664 1.703c-2.38.428-4.762.637-7.152.637-4.365 0-8.333-.69-11.927-2.048-3.592-1.369-6.672-3.363-9.24-5.982-2.561-2.62-4.543-5.828-5.933-9.619-1.389-3.788-2.077-8.133-2.077-13.02 0-4.125.646-7.927 1.952-11.416 1.306-3.476 3.186-6.483 5.64-9 2.465-2.525 5.472-4.5 9.043-5.918 3.571-1.433 7.623-2.142 12.155-2.142 3.589-.003 6.912.55 9.971 1.67zm-18.755 3.81c-2.61.929-4.866 2.256-6.766 3.988-1.9 1.733-3.446 3.811-4.616 6.233-1.181 2.434-1.952 5.148-2.339 8.147h42.062c0-3.082-.469-5.838-1.408-8.28-.941-2.457-2.269-4.523-3.98-6.214-1.711-1.691-3.759-2.999-6.15-3.894-2.4-.91-5.043-1.361-7.957-1.361-3.289 0-6.246.463-8.846 1.381z"/><path d="M283.842 136.353c-4.553 0-8.796-.731-12.612-2.173-3.845-1.464-7.188-3.631-9.941-6.439-2.751-2.816-4.893-6.284-6.368-10.31-1.457-3.973-2.196-8.578-2.196-13.688 0-4.348.699-8.418 2.076-12.096 1.4-3.728 3.441-6.983 6.068-9.676 2.654-2.719 5.922-4.861 9.715-6.367 3.767-1.512 8.1-2.279 12.872-2.279 3.81 0 7.389.602 10.638 1.789 3.284 1.197 6.187 2.983 8.621 5.306 2.432 2.31 4.357 5.191 5.721 8.559 1.5 3.69 2.034 8.948 2.034 12.637 0 .874-.097 2.14-.934 3.044-.451.494-1.301 1.093-2.742 1.093H262.64c.071 3.689.612 5.967 1.558 8.733 1.012 2.996 2.469 5.533 4.332 7.549 1.836 1.979 4.094 3.493 6.707 4.5 2.676 1.029 5.724 1.55 9.054 1.55 3.012 0 5.644-.299 7.825-.892 2.239-.607 4.117-1.279 5.584-2 1.498-.737 2.702-1.413 3.58-2.007 1.342-.9 2.279-1.281 3.146-1.281 1.146 0 2.145.467 2.811 1.315l2.731 3.037-1.142 1.296c-1.158 1.312-2.643 2.497-4.537 3.623-1.793 1.067-3.813 1.988-6.003 2.735a46.283 46.283 0 0 1-6.953 1.777 42.713 42.713 0 0 1-7.491.665zm-.386-59.147c-4.274 0-8.121.674-11.433 2.003-3.29 1.306-6.105 3.146-8.376 5.472-2.248 2.306-4.002 5.108-5.212 8.328-1.214 3.24-1.828 6.853-1.828 10.733 0 4.652.658 8.809 1.959 12.352 1.285 3.507 3.134 6.512 5.497 8.93 2.356 2.404 5.233 4.264 8.544 5.525 3.371 1.274 7.152 1.92 11.235 1.92a38.5 38.5 0 0 0 6.809-.607 42.397 42.397 0 0 0 6.378-1.628c1.937-.661 3.711-1.467 5.273-2.398a17.93 17.93 0 0 0 2.376-1.66l-.298-.332a9.19 9.19 0 0 0-.932.56c-1.017.689-2.379 1.455-4.036 2.271-1.69.831-3.803 1.592-6.281 2.264-2.513.681-5.487 1.027-8.842 1.027-3.809 0-7.323-.609-10.446-1.809-3.173-1.222-5.918-3.067-8.163-5.485-2.24-2.422-3.974-5.428-5.159-8.938-1.122-3.283-1.771-6.11-1.771-10.828v-3.037h47.832c.003-.072.005-.156.005-.254 0-4.174-.686-8.562-1.748-11.178-1.155-2.854-2.77-5.277-4.802-7.206-2.048-1.956-4.494-3.458-7.273-4.471-2.824-1.03-5.955-1.554-9.308-1.554zm21.499 23.852h-46.211l.283-2.189c.413-3.214 1.261-6.157 2.518-8.747 1.266-2.621 2.967-4.917 5.056-6.82 2.076-1.894 4.573-3.369 7.421-4.382 2.807-.992 6.001-1.493 9.497-1.493 3.134 0 6.042.5 8.646 1.487 2.608.976 4.909 2.433 6.826 4.328 1.906 1.882 3.396 4.205 4.429 6.901 1.019 2.646 1.536 5.667 1.536 8.974v1.941zm-41.71-3.882h37.757c-.154-2.063-.559-3.955-1.207-5.642-.835-2.18-2.022-4.04-3.532-5.531-1.526-1.507-3.366-2.67-5.468-3.457-2.2-.834-4.577-1.238-7.276-1.238-3.055 0-5.812.428-8.199 1.27-2.354.838-4.41 2.047-6.104 3.592-1.72 1.568-3.124 3.466-4.175 5.643-.79 1.623-1.389 3.418-1.796 5.363z"/><path d="M293.427 76.938c3.06 1.114 5.702 2.745 7.946 4.887 2.245 2.131 4 4.762 5.263 7.882 1.265 3.113 1.893 7.86 1.893 11.909 0 .846-.137 1.422-.418 1.726-.284.311-.722.47-1.317.47H260.69v1.095c0 4.311.554 6.938 1.67 10.207 1.107 3.279 2.696 6.024 4.743 8.238 2.055 2.214 4.531 3.875 7.435 4.994 2.912 1.118 6.162 1.68 9.752 1.68 3.207 0 5.984-.323 8.334-.959 2.35-.637 4.333-1.346 5.931-2.13 1.61-.792 2.873-1.506 3.812-2.143.95-.637 1.629-.948 2.058-.948.552 0 .979.186 1.284.573l1.659 1.85c-1.023 1.16-2.381 2.233-4.072 3.238-1.681 1.001-3.56 1.858-5.637 2.566a44.13 44.13 0 0 1-6.664 1.703c-2.38.428-4.762.637-7.152.637-4.365 0-8.333-.69-11.927-2.048-3.592-1.369-6.672-3.363-9.24-5.982-2.561-2.62-4.543-5.828-5.933-9.619-1.389-3.788-2.077-8.133-2.077-13.02 0-4.125.646-7.927 1.952-11.416 1.306-3.476 3.186-6.483 5.64-9 2.465-2.525 5.472-4.5 9.043-5.918 3.571-1.433 7.623-2.142 12.155-2.142 3.589-.003 6.912.55 9.971 1.67zm-18.755 3.81c-2.61.929-4.866 2.256-6.766 3.988-1.9 1.733-3.446 3.811-4.616 6.233-1.181 2.434-1.952 5.148-2.339 8.147h42.062c0-3.082-.469-5.838-1.408-8.28-.941-2.457-2.269-4.523-3.98-6.214-1.711-1.691-3.759-2.999-6.15-3.894-2.4-.91-5.043-1.361-7.957-1.361-3.289 0-6.246.463-8.846 1.381z"/><path d="M283.842 136.353c-4.553 0-8.796-.731-12.612-2.173-3.845-1.464-7.188-3.631-9.941-6.439-2.751-2.816-4.893-6.284-6.368-10.31-1.457-3.973-2.196-8.578-2.196-13.688 0-4.348.699-8.418 2.076-12.096 1.4-3.728 3.441-6.983 6.068-9.676 2.654-2.719 5.922-4.861 9.715-6.367 3.767-1.512 8.1-2.279 12.872-2.279 3.81 0 7.389.602 10.638 1.789 3.284 1.197 6.187 2.983 8.621 5.306 2.432 2.31 4.357 5.191 5.721 8.559 1.5 3.69 2.034 8.948 2.034 12.637 0 .874-.097 2.14-.934 3.044-.451.494-1.301 1.093-2.742 1.093H262.64c.071 3.689.612 5.967 1.558 8.733 1.012 2.996 2.469 5.533 4.332 7.549 1.836 1.979 4.094 3.493 6.707 4.5 2.676 1.029 5.724 1.55 9.054 1.55 3.012 0 5.644-.299 7.825-.892 2.239-.607 4.117-1.279 5.584-2 1.498-.737 2.702-1.413 3.58-2.007 1.342-.9 2.279-1.281 3.146-1.281 1.146 0 2.145.467 2.811 1.315l2.731 3.037-1.142 1.296c-1.158 1.312-2.643 2.497-4.537 3.623-1.793 1.067-3.813 1.988-6.003 2.735a46.283 46.283 0 0 1-6.953 1.777 42.713 42.713 0 0 1-7.491.665zm-.386-59.147c-4.274 0-8.121.674-11.433 2.003-3.29 1.306-6.105 3.146-8.376 5.472-2.248 2.306-4.002 5.108-5.212 8.328-1.214 3.24-1.828 6.853-1.828 10.733 0 4.652.658 8.809 1.959 12.352 1.285 3.507 3.134 6.512 5.497 8.93 2.356 2.404 5.233 4.264 8.544 5.525 3.371 1.274 7.152 1.92 11.235 1.92a38.5 38.5 0 0 0 6.809-.607 42.397 42.397 0 0 0 6.378-1.628c1.937-.661 3.711-1.467 5.273-2.398a17.93 17.93 0 0 0 2.376-1.66l-.298-.332a9.19 9.19 0 0 0-.932.56c-1.017.689-2.379 1.455-4.036 2.271-1.69.831-3.803 1.592-6.281 2.264-2.513.681-5.487 1.027-8.842 1.027-3.809 0-7.323-.609-10.446-1.809-3.173-1.222-5.918-3.067-8.163-5.485-2.24-2.422-3.974-5.428-5.159-8.938-1.122-3.283-1.771-6.11-1.771-10.828v-3.037h47.832c.003-.072.005-.156.005-.254 0-4.174-.686-8.562-1.748-11.178-1.155-2.854-2.77-5.277-4.802-7.206-2.048-1.956-4.494-3.458-7.273-4.471-2.824-1.03-5.955-1.554-9.308-1.554zm21.499 23.852h-46.211l.283-2.189c.413-3.214 1.261-6.157 2.518-8.747 1.266-2.621 2.967-4.917 5.056-6.82 2.076-1.894 4.573-3.369 7.421-4.382 2.807-.992 6.001-1.493 9.497-1.493 3.134 0 6.042.5 8.646 1.487 2.608.976 4.909 2.433 6.826 4.328 1.906 1.882 3.396 4.205 4.429 6.901 1.019 2.646 1.536 5.667 1.536 8.974v1.941zm-41.71-3.882h37.757c-.154-2.063-.559-3.955-1.207-5.642-.835-2.18-2.022-4.04-3.532-5.531-1.526-1.507-3.366-2.67-5.468-3.457-2.2-.834-4.577-1.238-7.276-1.238-3.055 0-5.812.428-8.199 1.27-2.354.838-4.41 2.047-6.104 3.592-1.72 1.568-3.124 3.466-4.175 5.643-.79 1.623-1.389 3.418-1.796 5.363zM409.532 76.938c3.059 1.114 5.702 2.745 7.946 4.887 2.245 2.131 4.001 4.762 5.264 7.882 1.264 3.113 1.892 7.86 1.892 11.909 0 .846-.137 1.422-.419 1.726-.283.311-.721.47-1.316.47h-46.104v1.095c0 4.311.554 6.938 1.67 10.207 1.107 3.279 2.696 6.024 4.742 8.238 2.056 2.214 4.532 3.875 7.434 4.994 2.914 1.118 6.162 1.68 9.754 1.68 3.207 0 5.982-.323 8.334-.959 2.35-.637 4.333-1.346 5.931-2.13 1.608-.792 2.873-1.506 3.812-2.143.948-.637 1.627-.948 2.056-.948.554 0 .981.186 1.285.573l1.66 1.85c-1.023 1.16-2.381 2.233-4.072 3.238-1.683 1.001-3.562 1.858-5.639 2.566a44.069 44.069 0 0 1-6.664 1.703c-2.38.428-4.762.637-7.15.637-4.367 0-8.333-.69-11.928-2.048-3.59-1.369-6.673-3.363-9.239-5.982-2.56-2.62-4.543-5.828-5.933-9.619-1.389-3.788-2.079-8.133-2.079-13.02 0-4.125.648-7.927 1.952-11.416 1.307-3.476 3.186-6.483 5.641-9 2.464-2.525 5.473-4.5 9.044-5.918 3.571-1.433 7.623-2.142 12.155-2.142 3.589-.003 6.911.55 9.971 1.67zm-18.755 3.81c-2.609.929-4.865 2.256-6.766 3.988-1.9 1.733-3.446 3.811-4.618 6.233-1.178 2.434-1.952 5.148-2.339 8.147h42.064c0-3.082-.471-5.838-1.41-8.28-.939-2.457-2.266-4.523-3.98-6.214-1.711-1.691-3.757-2.999-6.149-3.894-2.401-.91-5.042-1.361-7.958-1.361-3.288 0-6.245.463-8.844 1.381z"/><path d="M399.947 136.353c-4.552 0-8.796-.731-12.614-2.173-3.846-1.466-7.188-3.633-9.939-6.44-2.75-2.815-4.893-6.283-6.367-10.309-1.459-3.977-2.199-8.581-2.199-13.688 0-4.342.698-8.412 2.076-12.095 1.401-3.729 3.442-6.984 6.068-9.677 2.652-2.718 5.922-4.86 9.718-6.367 3.766-1.512 8.1-2.279 12.871-2.279 3.811 0 7.39.602 10.639 1.789 3.283 1.197 6.184 2.983 8.62 5.306 2.432 2.31 4.358 5.191 5.721 8.559 1.5 3.69 2.034 8.948 2.034 12.637 0 .876-.096 2.144-.939 3.048-.442.486-1.292 1.088-2.736 1.088h-44.154c.07 3.689.611 5.967 1.558 8.733 1.011 2.995 2.467 5.533 4.33 7.549 1.837 1.978 4.096 3.493 6.707 4.5 2.679 1.029 5.728 1.55 9.056 1.55 3.009 0 5.642-.299 7.825-.892 2.239-.607 4.118-1.279 5.585-2 1.502-.74 2.705-1.416 3.579-2.007 1.339-.9 2.276-1.281 3.144-1.281 1.148 0 2.147.467 2.813 1.315l2.731 3.037-1.144 1.296c-1.157 1.312-2.64 2.497-4.536 3.623-1.797 1.068-3.818 1.989-6.004 2.735a46.151 46.151 0 0 1-6.955 1.777c-2.455.44-4.977.666-7.488.666zm-.387-59.147c-4.274 0-8.121.674-11.434 2.003-3.291 1.307-6.107 3.147-8.377 5.472-2.248 2.306-4.001 5.108-5.211 8.328-1.213 3.245-1.829 6.857-1.829 10.733 0 4.65.66 8.805 1.96 12.352 1.288 3.507 3.135 6.512 5.499 8.93 2.354 2.403 5.229 4.263 8.542 5.525 3.371 1.274 7.154 1.92 11.236 1.92 2.28 0 4.57-.204 6.808-.607 2.22-.39 4.364-.938 6.377-1.627 1.936-.661 3.71-1.467 5.278-2.399.9-.535 1.693-1.091 2.373-1.66l-.298-.333a9.22 9.22 0 0 0-.931.56c-1.027.696-2.351 1.441-4.035 2.272-1.693.831-3.805 1.592-6.283 2.264-2.516.682-5.49 1.027-8.842 1.027-3.807 0-7.323-.609-10.449-1.809-3.169-1.222-5.916-3.066-8.161-5.484-2.241-2.425-3.973-5.43-5.157-8.939-1.123-3.283-1.772-6.11-1.772-10.828v-3.037h47.832c.003-.072.005-.156.005-.254 0-4.174-.686-8.562-1.749-11.178-1.154-2.854-2.77-5.277-4.801-7.206-2.049-1.956-4.494-3.458-7.274-4.471-2.825-1.03-5.953-1.554-9.307-1.554zm21.499 23.852h-46.214l.283-2.189c.414-3.209 1.262-6.151 2.517-8.746 1.271-2.625 2.974-4.92 5.059-6.821 2.077-1.894 4.575-3.369 7.423-4.382 2.806-.992 5.998-1.493 9.494-1.493 3.133 0 6.042.5 8.647 1.487 2.607.975 4.905 2.432 6.825 4.328 1.908 1.882 3.397 4.206 4.429 6.902 1.02 2.649 1.537 5.67 1.537 8.973v1.941zm-41.711-3.882h37.758c-.154-2.062-.559-3.953-1.21-5.642-.833-2.18-2.02-4.039-3.53-5.53-1.528-1.509-3.367-2.672-5.467-3.458-2.201-.834-4.58-1.238-7.278-1.238-3.055 0-5.812.428-8.197 1.27-2.354.838-4.409 2.047-6.104 3.592-1.72 1.566-3.125 3.465-4.178 5.645-.788 1.623-1.389 3.419-1.794 5.361zM365.305 77.343l-.835 3.81c-.125.618-.554.933-1.273.933-.262 0-.627-.083-1.096-.231a31.39 31.39 0 0 0-1.768-.523c-.696-.197-1.565-.364-2.588-.52-1.033-.159-2.204-.231-3.531-.231-4.834 0-8.791 1.346-11.893 4.042-3.102 2.692-5.608 6.589-7.54 11.662v32.8c5.274.189 5.92.201 6.725.243 1.589.061 2.538.564 2.538 2.036v2.297h-24.613v-2.297c0-1.472.95-1.976 2.537-2.036.804-.042 1.452-.053 6.726-.243V80.771c-5.273-.189-5.922-.201-6.726-.243-1.587-.072-2.537-.565-2.537-2.036v-2.297h12.468c.73 0 1.254.125 1.566.398.324.269.502.732.553 1.388l.513 12.125c2.046-4.659 4.782-8.303 8.206-10.945 3.416-2.631 7.625-3.955 12.626-3.955 1.934 0 3.696.186 5.326.554 1.63.362 3.166.893 4.616 1.583z"/><path d="M345.986 135.602h-28.494v-4.239c0-1.146.429-3.824 4.403-3.977.435-.021.845-.037 2.076-.079l2.782-.097V82.644l-2.782-.097a117.196 117.196 0 0 1-2.103-.081c-3.95-.179-4.377-2.839-4.377-3.975v-4.239H331.9c1.238 0 2.167.287 2.843.876.699.579 1.118 1.498 1.213 2.7l.229 5.408c1.567-2.188 3.361-4.066 5.368-5.615 3.755-2.893 8.401-4.359 13.812-4.359 2.079 0 3.96.196 5.754.601a23.79 23.79 0 0 1 5.021 1.726l1.393.662-1.165 5.316c-.303 1.505-1.521 2.459-3.169 2.459-.459 0-.977-.1-1.68-.321a28.893 28.893 0 0 0-1.684-.499c-.599-.169-1.368-.323-2.381-.476-.913-.142-1.972-.209-3.238-.209-4.386 0-7.859 1.166-10.619 3.565-2.764 2.397-5.073 5.948-6.871 10.559v30.565l2.773.097c1.237.042 1.647.056 2.108.081 3.95.15 4.38 2.829 4.38 3.975v4.239zm-24.602-3.883h20.719v-.356a.07.07 0 0 1 .002-.016 3.198 3.198 0 0 0-.673-.08c-.473-.024-.871-.038-2.067-.08l-6.523-.23V96.074l-.758-17.935a4.897 4.897 0 0 0-.184-.003h-10.526v.356l-.001.011c.122.031.335.069.685.085.458.023.855.037 2.048.079l6.531.23v52.06l-6.531.23c-1.192.042-1.59.056-2.035.078a3.45 3.45 0 0 0-.685.079l-.002.375zm33.98-54.573c-4.532 0-8.381 1.196-11.44 3.551a21.364 21.364 0 0 0-1.966 1.722c3.305-2.509 7.421-3.779 12.257-3.779 1.466 0 2.717.083 3.826.254 1.186.18 2.083.361 2.821.569.727.195 1.349.383 1.848.549.008.002.015.003.022.006l.334-1.524a20.07 20.07 0 0 0-2.798-.841c-1.513-.341-3.116-.507-4.904-.507z"/><g><path d="M505.511 131.363v2.297h-15.362V96.922c0-5.388-1.369-9.615-4.103-12.675-2.738-3.06-6.924-4.595-12.561-4.595-4.189 0-8.084.982-11.679 2.922-3.59 1.941-6.797 4.607-9.614 8v38.509c1.156.042 2.202.083 3.12.117.918.031 1.565.053 1.94.061a133.322 133.322 0 0 1 1.654.065c1.69.072 2.535.751 2.535 2.036v2.297h-24.613v-2.297c0-1.285.857-1.964 2.548-2.036.22-.012.493-.023.827-.031.334-.011 1.03-.042 2.089-.076 1.065-.042 2.328-.083 3.811-.136V80.771c-1.172-.042-2.203-.084-3.133-.118-.921-.03-1.569-.053-1.944-.061a68.984 68.984 0 0 1-.971-.034 20.3 20.3 0 0 1-.679-.03c-1.69-.072-2.548-.751-2.548-2.036v-2.297H449.43c1.107 0 1.756.481 1.923 1.44l.576 8.667a34.922 34.922 0 0 1 10.168-8.008c3.863-2.017 8.179-3.029 12.918-3.029 3.5 0 6.589.5 9.262 1.505 2.674 1.001 4.887 2.442 6.644 4.333 1.755 1.876 3.082 4.156 3.977 6.806.899 2.666 1.351 5.661 1.351 9.012v32.163c1.155.042 2.19.083 3.119.117.929.031 1.578.053 1.946.061.375.012.697.023.97.034.27.008.5.019.679.031 1.692.072 2.548.751 2.548 2.036z"/><path d="M507.453 135.602h-19.245v-38.68c0-4.873-1.213-8.701-3.609-11.382-2.343-2.619-6.081-3.947-11.112-3.947-3.832 0-7.451.905-10.755 2.69-3.173 1.714-6.063 4.069-8.597 7.003v35.928l4.164.143c.268.008.518.02.725.032 3.208.136 4.362 2.142 4.362 3.974v4.239h-28.497v-4.239c0-1.832 1.158-3.837 4.406-3.976.218-.012.51-.023.865-.032l4.002-.145-.081-44.573-4.106-.141c-.267-.007-.505-.02-.712-.032-3.216-.136-4.374-2.142-4.374-3.973v-4.239h14.544c2.038 0 3.508 1.168 3.835 3.049l.024.205.291 4.362a36.901 36.901 0 0 1 7.617-5.294c4.132-2.156 8.78-3.25 13.817-3.25 3.724 0 7.068.547 9.944 1.629 2.95 1.104 5.436 2.729 7.384 4.83 1.928 2.062 3.408 4.59 4.393 7.505.963 2.858 1.452 6.099 1.452 9.633v30.292l4.176.143c.27.008.525.02.722.032 3.206.137 4.365 2.142 4.365 3.974v4.24zm-15.364-3.883h11.481v-.354a2.737 2.737 0 0 0-.69-.099 17.864 17.864 0 0 0-.65-.03l-7.923-.28V96.922c0-3.112-.419-5.936-1.247-8.393-.806-2.386-2.001-4.439-3.556-6.099-1.54-1.66-3.524-2.951-5.905-3.842-2.44-.917-5.327-1.382-8.582-1.382-3.549 0-6.862.613-9.885 1.827a26.547 26.547 0 0 1 8.354-1.322c6.182 0 10.896 1.764 14.007 5.241 3.051 3.415 4.597 8.115 4.597 13.97v34.797zm-53.402 0h20.815v-.355c-.068-.022-.283-.08-.678-.097a18.943 18.943 0 0 0-.662-.03l-.969-.034c-.29-.005-.787-.021-1.466-.044l-5.477-.202V90.301l-.81-12.166h-10.671v.353c.068.022.285.083.689.1.205.013.406.022.65.03l7.934.279v52.06l-7.774.279c-.333.008-.587.018-.792.029-.616.026-.802.146-.804.147l.015.307z"/></g><g><path d="M526.837 131.352c-2.415-2.161-3.623-5.494-3.623-9.994V82.086h-9.168c-.471 0-.857-.117-1.149-.356-.304-.231-.45-.553-.45-.982v-2.13l10.903-.698 1.532-20.561c.041-.345.212-.648.48-.921.284-.27.66-.406 1.13-.406h2.882V77.98h20.067v4.106h-20.067v38.979c0 1.578.22 2.935.667 4.072.451 1.141 1.077 2.07 1.857 2.798a7.467 7.467 0 0 0 2.799 1.619c1.065.345 2.215.524 3.458.524 1.547 0 2.861-.197 3.978-.607 1.106-.406 2.069-.846 2.885-1.323a22.027 22.027 0 0 0 1.995-1.327c.511-.41.916-.619 1.208-.619.345 0 .69.201 1.024.588l1.672 2.419c-1.619 1.619-3.686 2.915-6.184 3.897a21.21 21.21 0 0 1-7.8 1.482c-4.312.001-7.672-1.087-10.096-3.236z"/><path d="M536.934 136.531c-4.768 0-8.597-1.254-11.386-3.727-2.839-2.541-4.276-6.391-4.276-11.446v-37.33h-7.226c-.92 0-1.742-.275-2.377-.795-.732-.556-1.165-1.453-1.165-2.484v-3.952l11.035-.706 1.406-18.875a3.523 3.523 0 0 1 1.035-2.141c.696-.659 1.547-.984 2.512-.984h4.822V76.04h20.069v7.989h-20.069v37.038c0 1.332.181 2.463.534 3.361.335.847.797 1.551 1.374 2.089.59.541 1.27.934 2.068 1.19a9.248 9.248 0 0 0 2.864.431c1.332 0 2.414-.16 3.309-.488 1.004-.369 1.868-.764 2.571-1.176.66-.391 1.27-.797 1.809-1.203.846-.677 1.616-1.009 2.377-1.009.642 0 1.595.219 2.493 1.26l.127.164 2.594 3.751-1.146 1.145c-1.793 1.794-4.097 3.251-6.846 4.332a23.215 23.215 0 0 1-8.508 1.617zm-13.72-56.386h1.94v41.213c0 3.903 1.003 6.779 2.978 8.548 2.05 1.818 5.013 2.743 8.802 2.743 2.422 0 4.808-.454 7.091-1.348 1.659-.652 3.105-1.457 4.315-2.402l-.294-.428c-.642.475-1.314.918-2.037 1.347-.913.535-1.988 1.03-3.209 1.477-1.327.488-2.848.725-4.645.725-1.426 0-2.791-.207-4.055-.618a9.407 9.407 0 0 1-3.515-2.036c-1.013-.944-1.8-2.122-2.35-3.514-.534-1.356-.804-2.965-.804-4.786V80.145h20.068v-.224h-20.068V57.973h-.651l-1.621 21.776-6.514.417 4.569-.021z"/></g><g><path d="M601.533 77.373c3.613 1.399 6.653 3.397 9.137 5.975 2.477 2.579 4.364 5.691 5.673 9.335 1.304 3.636 1.952 7.708 1.952 12.208 0 4.512-.648 8.573-1.952 12.197-1.309 3.613-3.196 6.714-5.673 9.293-2.483 2.578-5.523 4.564-9.137 5.952s-7.705 2.078-12.28 2.078c-4.572 0-8.667-.69-12.28-2.078-3.614-1.388-6.673-3.375-9.168-5.952-2.506-2.579-4.406-5.68-5.714-9.293-1.304-3.625-1.952-7.686-1.952-12.197 0-4.5.648-8.572 1.952-12.208 1.308-3.644 3.208-6.756 5.714-9.335 2.495-2.578 5.554-4.576 9.168-5.975 3.613-1.407 7.708-2.108 12.28-2.108 4.575 0 8.666.701 12.28 2.108zm-2.306 50.941c2.84-1.171 5.21-2.851 7.109-5.054 1.899-2.195 3.321-4.838 4.273-7.939.939-3.102 1.406-6.578 1.406-10.43 0-3.81-.467-7.279-1.406-10.392-.952-3.121-2.374-5.782-4.273-7.996-1.899-2.214-4.27-3.917-7.109-5.119-2.851-1.19-6.173-1.785-9.975-1.785-3.811 0-7.132.595-9.972 1.785-2.839 1.202-5.221 2.904-7.12 5.119-1.903 2.214-3.333 4.875-4.292 7.996-.963 3.113-1.444 6.582-1.444 10.392 0 3.853.481 7.329 1.444 10.43.959 3.102 2.389 5.744 4.292 7.939 1.899 2.203 4.281 3.882 7.12 5.054 2.84 1.179 6.161 1.764 9.972 1.764 3.802 0 7.124-.584 9.975-1.764z"/><path d="M589.252 136.353c-4.799 0-9.164-.742-12.977-2.207-3.864-1.484-7.185-3.643-9.866-6.415-2.676-2.751-4.744-6.111-6.145-9.982-1.373-3.815-2.068-8.141-2.068-12.858 0-4.712.695-9.041 2.066-12.863 1.4-3.9 3.469-7.275 6.15-10.032 2.684-2.774 6.001-4.939 9.857-6.434 3.815-1.485 8.183-2.238 12.981-2.238s9.165.753 12.984 2.241c3.84 1.486 7.15 3.653 9.832 6.437 2.65 2.762 4.703 6.133 6.101 10.025 1.37 3.824 2.066 8.152 2.066 12.864 0 4.717-.696 9.042-2.066 12.854-1.401 3.867-3.452 7.224-6.099 9.981-2.681 2.781-5.989 4.94-9.843 6.419-3.809 1.465-8.175 2.208-12.973 2.208zm0-59.147c-4.315 0-8.209.665-11.577 1.976-3.331 1.291-6.182 3.146-8.476 5.517-2.294 2.36-4.07 5.267-5.282 8.641-1.221 3.401-1.838 7.287-1.838 11.552 0 4.269.617 8.151 1.838 11.541 1.212 3.346 2.988 6.239 5.278 8.597 2.29 2.366 5.14 4.213 8.472 5.493 3.367 1.292 7.265 1.949 11.585 1.949 4.319 0 8.218-.656 11.585-1.949 3.316-1.274 6.155-3.121 8.434-5.487 2.268-2.36 4.032-5.257 5.245-8.606 1.219-3.386 1.837-7.268 1.837-11.537 0-4.265-.618-8.151-1.839-11.553-1.211-3.373-2.976-6.282-5.245-8.645-2.284-2.372-5.124-4.228-8.438-5.51-3.37-1.314-7.264-1.979-11.579-1.979zm0 54.813c-4.057 0-7.66-.642-10.717-1.912-3.124-1.289-5.765-3.167-7.845-5.579-2.068-2.385-3.643-5.291-4.676-8.633-1.016-3.271-1.531-6.975-1.531-11.004 0-3.992.516-7.681 1.531-10.965 1.031-3.357 2.604-6.281 4.673-8.688 2.077-2.421 4.715-4.319 7.837-5.641 3.07-1.288 6.678-1.939 10.728-1.939 4.04 0 7.646.651 10.724 1.935 3.119 1.321 5.752 3.218 7.833 5.646 2.064 2.406 3.63 5.331 4.656 8.694.991 3.277 1.491 6.962 1.491 10.958 0 4.033-.5 7.732-1.489 10.994-1.029 3.352-2.597 6.259-4.663 8.646-2.082 2.415-4.719 4.293-7.836 5.578-3.064 1.267-6.671 1.91-10.716 1.91zm0-50.479c-3.532 0-6.634.55-9.221 1.635-2.56 1.082-4.713 2.628-6.398 4.591-1.72 2.001-3.034 4.458-3.909 7.303-.901 2.916-1.359 6.219-1.359 9.821 0 3.639.458 6.955 1.358 9.855.874 2.827 2.187 5.262 3.905 7.243 1.681 1.952 3.83 3.475 6.394 4.532 2.584 1.073 5.688 1.616 9.23 1.616 3.533 0 6.641-.543 9.233-1.616 2.55-1.052 4.696-2.576 6.382-4.527 1.711-1.98 3.02-4.415 3.886-7.242.876-2.889 1.321-6.209 1.321-9.861 0-3.616-.445-6.923-1.323-9.831-.866-2.84-2.176-5.296-3.888-7.293-1.689-1.968-3.839-3.514-6.393-4.594-2.59-1.082-5.695-1.632-9.218-1.632z"/></g></g><linearGradient id="a" gradientUnits="userSpaceOnUse" x1="114.848" y1="163.947" x2="114.848" y2="14.021"><stop offset="0" stop-color="#5dc0d3"/><stop offset="1" stop-color="#34a9cc"/></linearGradient><path fill="url(#a)" d="M126.619 93.431a15.217 15.217 0 0 1-4.675-2.434l-40.295 20.954a19.639 19.639 0 0 1-.036 10.51l59.935 18.938a29.365 29.365 0 0 1 10.34-11.023l-18.876-36.345c-2.086.25-4.258.079-6.393-.6z"/><linearGradient id="b" gradientUnits="userSpaceOnUse" x1="114.848" y1="163.947" x2="114.848" y2="14.021"><stop offset="0" stop-color="#5dc0d3"/><stop offset="1" stop-color="#34a9cc"/></linearGradient><path fill="url(#b)" d="M168.226 68.785c-2.783 0-5.516.25-8.176.713.437-2.565.664-5.2.664-7.894 0-26.28-21.303-47.583-47.585-47.583-26.277 0-47.571 21.303-47.571 47.583 0 2.521.193 4.992.559 7.413a46.375 46.375 0 0 0-4.667-.231c-26.274 0-47.577 21.297-47.577 47.578 0 25.606 20.234 46.48 45.573 47.531v.053h79.922a29.342 29.342 0 0 1-.507-15.49l-60.696-19.174c-4.901 6.224-13.307 9.088-21.312 6.565-10.313-3.257-16.04-14.272-12.783-24.586 3.266-10.322 14.271-16.04 24.586-12.783a19.46 19.46 0 0 1 9.623 6.729L117.27 84.95a15.076 15.076 0 0 1-.527-10.536c2.521-7.981 11.033-12.404 19.018-9.885 7.986 2.517 12.416 11.041 9.895 19.022a15.08 15.08 0 0 1-5.605 7.721l18.703 35.968c5.518-1.715 11.574-1.82 17.513.045 12.231 3.878 20.154 15.034 20.497 27.169 11.566-8.676 19.062-22.511 19.062-38.092-.002-26.28-21.315-47.577-47.6-47.577z"/></svg>