<svg width="14" height="24" viewBox="0 0 14 24" xmlns="http://www.w3.org/2000/svg"><title>23FED4CA-48B0-43D1-A559-6189337FD250</title><path d="M1.5 2.005v19.99c0 .28.226.505.506.505h9.988c.28 0 .506-.226.506-.505V2.005a.505.505 0 0 0-.506-.505H2.006a.505.505 0 0 0-.506.505zm-1.5 0C0 .898.897 0 2.006 0h9.988C13.102 0 14 .897 14 2.005v19.99A2.005 2.005 0 0 1 11.994 24H2.006A2.005 2.005 0 0 1 0 21.995V2.005zM0 18.75c0-.414.332-.75.753-.75h12.494a.75.75 0 0 1 .753.75c0 .414-.332.75-.753.75H.753A.75.75 0 0 1 0 18.75zM5 3c0-.276.215-.5.49-.5h3.02A.5.5 0 0 1 9 3c0 .276-.215.5-.49.5H5.49A.5.5 0 0 1 5 3zm1 18c0-.552.444-1 1-1 .552 0 1 .444 1 1 0 .552-.444 1-1 1-.552 0-1-.444-1-1zM0 5.25c0-.414.332-.75.753-.75h12.494a.75.75 0 0 1 .753.75c0 .414-.332.75-.753.75H.753A.75.75 0 0 1 0 5.25z" fill="#AAB0B3" fill-rule="evenodd"/></svg>