<svg width="24" height="19" viewBox="0 0 24 19" xmlns="http://www.w3.org/2000/svg"><title>21E11C0D-DFE1-4D12-A9B4-5FD5C4766B11</title><path d="M11.893 14.143l1.553-1.554-2.035-2.035-1.554 1.553v.75h1.286v1.286h.75zM17.786 4.5c-.143-.143-.29-.138-.442.013l-4.688 4.688c-.152.152-.156.299-.013.442.143.143.29.138.442-.014l4.687-4.687c.152-.152.157-.3.014-.442zm1.071 7.955V15c0 1.063-.377 1.971-1.132 2.725-.754.755-1.662 1.132-2.725 1.132H3.857c-1.062 0-1.97-.377-2.725-1.132C.377 16.971 0 16.063 0 15V3.857c0-1.062.377-1.97 1.132-2.725C1.886.377 2.795 0 3.857 0H15c.563 0 1.085.112 1.567.335a.406.406 0 0 1 .241.308.417.417 0 0 1-.12.388l-.657.657a.392.392 0 0 1-.428.107 2.382 2.382 0 0 0-.603-.08H3.857c-.59 0-1.094.21-1.513.629-.42.42-.63.924-.63 1.513V15c0 .59.21 1.094.63 1.513.42.42.924.63 1.513.63H15c.59 0 1.094-.21 1.513-.63.42-.42.63-.924.63-1.513v-1.688a.4.4 0 0 1 .12-.294l.858-.857a.402.402 0 0 1 .468-.094c.179.071.268.2.268.388zm-1.286-9.884L21.43 6.43l-9 9H8.57V11.57l9-9zm5.947 1.768l-1.232 1.232-3.857-3.857L19.66.482c.25-.25.553-.375.91-.375.358 0 .661.125.911.375l2.036 2.036c.25.25.375.553.375.91 0 .358-.125.661-.375.911z" fill="#1A9BDB" fill-rule="evenodd"/></svg>