<?xml version="1.0" encoding="UTF-8" standalone="no"?>
<svg width="28px" height="23px" viewBox="0 0 28 23" version="1.1" xmlns="http://www.w3.org/2000/svg" xmlns:xlink="http://www.w3.org/1999/xlink">
    <!-- Generator: sketchtool 41.1 (35376) - http://www.bohemiancoding.com/sketch -->
    <title>EE412028-DA20-42E7-B859-191781164B58</title>
    <desc>Created with sketchtool.</desc>
    <defs></defs>
    <g id="Symbols" stroke="none" stroke-width="1" fill="none" fill-rule="evenodd">
        <g id="USP-section" transform="translate(-455.000000, -26.000000)" fill="#1A9BDB">
            <g id="Group-5" transform="translate(380.000000, 17.000000)">
                <path d="M83.416185,14.9097222 C83.416185,16.2194444 82.5421965,17.3055556 81.150289,17.3055556 C79.7583815,17.3055556 78.8843931,16.2194444 78.8843931,14.9097222 C78.8843931,13.6 79.7583815,12.5138889 81.150289,12.5138889 C82.5421965,12.5138889 83.416185,13.6 83.416185,14.9097222 Z M75,14.9097222 C75,18.1680556 77.6543353,20.8194444 81.150289,20.8194444 C84.6462428,20.8194444 87.300578,18.1680556 87.300578,14.9097222 C87.300578,11.6513889 84.6462428,9 81.150289,9 C77.6543353,9 75,11.6513889 75,14.9097222 Z M99.1156069,26.0902778 C99.1156069,27.4 98.2416185,28.4861111 96.849711,28.4861111 C95.4578035,28.4861111 94.583815,27.4 94.583815,26.0902778 C94.583815,24.7805556 95.4578035,23.6944444 96.849711,23.6944444 C98.2416185,23.6944444 99.1156069,24.7805556 99.1156069,26.0902778 Z M90.699422,26.0902778 C90.699422,29.3486111 93.3537572,32 96.849711,32 C100.345665,32 103,29.3486111 103,26.0902778 C103,22.8319444 100.345665,20.1805556 96.849711,20.1805556 C93.3537572,20.1805556 90.699422,22.8319444 90.699422,26.0902778 Z M84.2254335,31.6805556 L97.4647399,9.31944444 L93.8716763,9.31944444 L80.6323699,31.6805556 L84.2254335,31.6805556 Z" id="%"></path>
            </g>
        </g>
    </g>
</svg>