<svg xmlns="http://www.w3.org/2000/svg" width="24" height="24" viewBox="0 0 24 24">
    <g fill="#F57723" fill-rule="nonzero">
        <path d="M8.797 21.857c0 .08.04.155.103.2a.227.227 0 0 0 .22.022l4.243-1.842a.973.973 0 0 0 .576-.9v-5.276c0-.08-.04-.156-.105-.2a.225.225 0 0 0-.219-.022L8.94 15.871a.245.245 0 0 0-.143.225v5.761zM3.044 13.843a.225.225 0 0 0-.22.022.243.243 0 0 0-.104.2v5.276c0 .394.227.75.576.9l4.242 1.842a.226.226 0 0 0 .22-.023.247.247 0 0 0 .104-.202V16.1a.244.244 0 0 0-.144-.225l-4.674-2.032zM12.812 13.136a.243.243 0 0 0 .144-.224.243.243 0 0 0-.144-.225l-4.128-1.79a.9.9 0 0 0-.719 0l-4.128 1.79a.244.244 0 0 0-.142.225c0 .097.056.186.142.224L8.15 15c.115.05.244.05.359 0l4.303-1.864z"/>
        <path d="M11.133 10.254a.984.984 0 0 0 .459.87.903.903 0 0 0 .952 0 .984.984 0 0 0 .459-.87v-.122a.249.249 0 0 1 .104-.2.225.225 0 0 1 .22-.022l3.27 1.42a.244.244 0 0 1 .145.225V19.6c0 .394-.227.75-.576.9l-3.52 1.511a.967.967 0 0 0-.597.773.993.993 0 0 0 .363.917.904.904 0 0 0 .947.11l3.515-1.507c1.052-.45 1.737-1.52 1.734-2.704V6.214a.25.25 0 0 1 .07-.172l1.526-1.591c.365-.38.365-.996 0-1.376a.908.908 0 0 0-1.321-.001l-1.315 1.372a.226.226 0 0 1-.254.052l-3.44-1.492a.243.243 0 0 1-.139-.178.246.246 0 0 1 .064-.219l.8-.833a1 1 0 0 0 .269-.954.955.955 0 0 0-.676-.703.911.911 0 0 0-.916.281l-1.595 1.661c-.352.364-.55.86-.548 1.377v6.816zM13.15 7.72a.243.243 0 0 1-.144-.225V5.1c0-.081.04-.157.105-.202a.226.226 0 0 1 .219-.022L16.598 6.3a.243.243 0 0 1 .144.225v2.39a.246.246 0 0 1-.104.203.225.225 0 0 1-.22.022L13.15 7.72z"/>
    </g>
</svg>
