<svg xmlns="http://www.w3.org/2000/svg" width="24" height="24" viewBox="0 0 24 24">
    <g fill="#001B49" fill-rule="nonzero">
        <path d="M3.663 21.93a.387.387 0 0 1-.457.058.372.372 0 0 1-.077-.584l1.86-1.83c.154.198.317.389.488.572L3.663 21.93zm16.639.058a.388.388 0 0 1-.458-.059l-1.813-1.783c.171-.183.334-.374.487-.572l1.861 1.83a.372.372 0 0 1-.077.584z"/>
        <path d="M16.525 7.366a.436.436 0 0 0-.6.115.42.42 0 0 0 .117.589c2.173 1.44 3.47 3.836 3.47 6.409 0 4.258-3.523 7.723-7.853 7.723s-7.854-3.465-7.854-7.723 3.523-7.723 7.854-7.723c.912 0 1.805.152 2.655.453a.433.433 0 0 0 .552-.256.423.423 0 0 0-.26-.543 8.826 8.826 0 0 0-2.947-.503c-4.807 0-8.717 3.846-8.717 8.572 0 4.726 3.91 8.571 8.717 8.571 4.806 0 8.717-3.845 8.717-8.571 0-2.856-1.44-5.515-3.851-7.113zm2.542-3.711a2.128 2.128 0 0 0-1.591-.278 2.098 2.098 0 0 0-1.325.91l-.766 1.18a.328.328 0 0 0 .102.452l2.997 1.883a.34.34 0 0 0 .46-.1l.767-1.18a2.059 2.059 0 0 0-.644-2.867zm.081 2.515l-.586.902-2.435-1.529.586-.902c.207-.32.533-.544.906-.623a1.456 1.456 0 0 1 1.09.19c.67.421.868 1.301.44 1.962z"/>
        <path d="M8.123 5.467l-.766-1.18a2.098 2.098 0 0 0-1.325-.91 2.127 2.127 0 0 0-1.591.278 2.058 2.058 0 0 0-.644 2.867l.766 1.18a.34.34 0 0 0 .46.1l2.998-1.883a.328.328 0 0 0 .102-.452zM4.946 7.072L4.36 6.17a1.408 1.408 0 0 1 .44-1.963 1.453 1.453 0 0 1 1.089-.19c.373.08.699.304.906.623l.586.903-2.435 1.53zM22.41 2.916A4.241 4.241 0 0 0 19.537.757a.334.334 0 0 0-.396.252.328.328 0 0 0 .256.39 3.569 3.569 0 0 1 2.423 1.818.34.34 0 0 0 .476.126.328.328 0 0 0 .115-.427zm-1.263.645a2.82 2.82 0 0 0-1.911-1.435.333.333 0 0 0-.396.25.328.328 0 0 0 .256.39 2.153 2.153 0 0 1 1.459 1.096.34.34 0 0 0 .476.125.328.328 0 0 0 .116-.426zM4.367 1.009A.334.334 0 0 0 3.97.758a4.241 4.241 0 0 0-2.874 2.158.328.328 0 0 0 .38.466.34.34 0 0 0 .212-.165 3.575 3.575 0 0 1 2.422-1.82.328.328 0 0 0 .256-.388zm.3 1.368a.333.333 0 0 0-.396-.251A2.821 2.821 0 0 0 2.36 3.56a.325.325 0 0 0 .142.442.34.34 0 0 0 .45-.14 2.153 2.153 0 0 1 1.459-1.096.328.328 0 0 0 .255-.39zM10.453 15.15a1.313 1.313 0 1 0 1.627-1.6v-2.552c0-.378-.165-.685-.367-.685-.202 0-.366.307-.366.685v2.556c-.424.126-.758.46-.884.883h-1.7c-.23 0-.416.16-.416.357 0 .197.187.356.417.356h1.689zm1.269 5.475a6.187 6.187 0 1 1 0-12.375 6.187 6.187 0 0 1 0 12.375z"/>
    </g>
</svg>
