<svg xmlns="http://www.w3.org/2000/svg" width="24" height="24" viewBox="0 0 24 24">
    <g fill="#001B49" fill-rule="nonzero">
        <path d="M4.441 21.102a.355.355 0 0 1-.418.054.341.341 0 0 1-.072-.536l1.706-1.677c.141.181.29.356.447.524L4.44 21.102zm15.252.054a.356.356 0 0 1-.419-.054l-1.662-1.635c.157-.168.306-.343.447-.524l1.705 1.677a.341.341 0 0 1-.07.536z"/>
        <path d="M16.231 7.752a.4.4 0 0 0-.55.105.385.385 0 0 0 .108.54c1.992 1.32 3.18 3.517 3.18 5.875 0 3.903-3.229 7.08-7.198 7.08-3.97 0-7.2-3.177-7.2-7.08s3.23-7.079 7.2-7.079c.836 0 1.655.14 2.433.415a.397.397 0 0 0 .506-.235.387.387 0 0 0-.238-.497 8.09 8.09 0 0 0-2.701-.46c-4.406 0-7.99 3.524-7.99 7.856 0 4.333 3.584 7.857 7.99 7.857 4.406 0 7.99-3.524 7.99-7.857 0-2.617-1.32-5.055-3.53-6.52zm2.33-3.402a1.95 1.95 0 0 0-1.458-.254c-.5.106-.937.406-1.215.834l-.701 1.081a.3.3 0 0 0 .092.415l2.748 1.725a.312.312 0 0 0 .422-.091l.702-1.081a1.887 1.887 0 0 0-.59-2.629zm.075 2.305l-.537.828-2.233-1.402.537-.827c.19-.293.49-.499.831-.571.343-.076.702-.013.999.174.615.386.796 1.193.403 1.798z"/>
        <path d="M8.53 6.011l-.702-1.08a1.923 1.923 0 0 0-1.215-.835 1.95 1.95 0 0 0-1.459.254 1.887 1.887 0 0 0-.59 2.629l.702 1.08c.09.138.282.18.422.092l2.748-1.725a.3.3 0 0 0 .093-.415zM5.616 7.483l-.537-.828a1.29 1.29 0 0 1 .403-1.798c.297-.187.656-.25.998-.174.342.072.641.278.831.57l.538.828-2.233 1.402zm16.01-3.81a3.888 3.888 0 0 0-2.635-1.979.306.306 0 0 0-.362.23.3.3 0 0 0 .234.358 3.271 3.271 0 0 1 2.22 1.667.311.311 0 0 0 .437.115.3.3 0 0 0 .106-.391zm-1.158.59a2.585 2.585 0 0 0-1.752-1.316.306.306 0 0 0-.362.232.3.3 0 0 0 .234.357 1.973 1.973 0 0 1 1.337 1.004.311.311 0 0 0 .437.115.3.3 0 0 0 .106-.391zM5.086 1.926a.306.306 0 0 0-.363-.23A3.888 3.888 0 0 0 2.09 3.672a.3.3 0 0 0 .349.428.311.311 0 0 0 .193-.152 3.277 3.277 0 0 1 2.22-1.668.3.3 0 0 0 .235-.356zm.275 1.254a.306.306 0 0 0-.363-.23 2.586 2.586 0 0 0-1.75 1.315.298.298 0 0 0 .13.404.311.311 0 0 0 .412-.128 1.973 1.973 0 0 1 1.337-1.004.3.3 0 0 0 .235-.358zM10.665 14.888a1.204 1.204 0 1 0 1.491-1.468v-2.338c0-.347-.15-.629-.336-.629-.185 0-.336.282-.336.629v2.343a1.206 1.206 0 0 0-.81.81H9.118c-.212 0-.383.146-.383.326 0 .18.172.327.383.327h1.548zm1.163 5.018a5.672 5.672 0 1 1 0-11.343 5.672 5.672 0 0 1 0 11.343z"/>
    </g>
</svg>
