<svg width="24" height="24" viewBox="0 0 24 24" xmlns="http://www.w3.org/2000/svg"><title>52EB4902-A05A-44A0-82D3-BB5DF5E304FF</title><path d="M15.868 3V.429a.417.417 0 0 0-.12-.308.417.417 0 0 0-.309-.121H12.01a.417.417 0 0 0-.308.12.417.417 0 0 0-.12.309V3c0 .125.04.228.12.308.08.08.183.12.308.12h3.43c.124 0 .227-.04.307-.12.08-.08.12-.183.12-.308zM9.439 4.714a.503.503 0 0 0-.134-.321L5.033.12A.447.447 0 0 0 4.725 0a.48.48 0 0 0-.308.12L.13 4.407c-.134.143-.165.3-.094.469.072.179.206.268.402.268H3.01V23.57c0 .125.04.228.121.308.08.08.183.121.308.121H6.01c.125 0 .228-.04.309-.12.08-.08.12-.184.12-.309V5.143H9.01c.125 0 .228-.04.309-.12.08-.081.12-.184.12-.309zm9 5.143V7.286a.417.417 0 0 0-.12-.308.417.417 0 0 0-.309-.12h-6a.417.417 0 0 0-.308.12.417.417 0 0 0-.12.308v2.571c0 .125.04.228.12.308.08.08.183.12.308.12h6c.125 0 .228-.04.309-.12.08-.08.12-.183.12-.308zm2.571 6.857v-2.571a.417.417 0 0 0-.12-.308.417.417 0 0 0-.308-.12H12.01a.417.417 0 0 0-.308.12.417.417 0 0 0-.12.308v2.571c0 .125.04.228.12.308.08.08.183.12.308.12h8.572c.125 0 .228-.04.308-.12.08-.08.12-.183.12-.308zm2.572 6.857V21a.417.417 0 0 0-.12-.308.417.417 0 0 0-.309-.12H12.01a.417.417 0 0 0-.308.12.417.417 0 0 0-.12.308v2.571c0 .125.04.228.12.308.08.08.183.121.308.121h11.143c.125 0 .228-.04.308-.12.08-.08.12-.184.12-.309z" fill="#1A9BDB" fill-rule="evenodd"/></svg>