<svg width="41" height="22" viewBox="0 0 41 22" xmlns="http://www.w3.org/2000/svg"><title>63261AF2-DA89-4E55-9769-7188F0EDA99A</title><g fill="none" fill-rule="evenodd"><path d="M0 18.429v-8.143h30.857v8.143c0 .589-.21 1.093-.63 1.513-.419.42-.923.63-1.513.63H2.143c-.59 0-1.094-.21-1.514-.63-.42-.42-.629-.924-.629-1.513zm8.571-3v1.714h5.143v-1.714H8.571zm-5.142 0v1.714h3.428v-1.714H3.43zM28.714 0c.59 0 1.094.21 1.514.63.42.42.63.924.63 1.513v3H0v-3c0-.59.21-1.094.63-1.514C1.05.21 1.553 0 2.142 0h26.571z" fill="#1A9BDB"/><path d="M30.41 13.818h5.454v-2.045c0-.753-.267-1.396-.8-1.929a2.628 2.628 0 0 0-1.928-.799c-.752 0-1.395.267-1.928.8a2.628 2.628 0 0 0-.799 1.928v2.045zm8.863 1.023v6.136c0 .284-.1.526-.299.725a.986.986 0 0 1-.724.298H28.023a.986.986 0 0 1-.725-.298.986.986 0 0 1-.298-.725v-6.136c0-.284.1-.526.298-.725a.986.986 0 0 1 .725-.298h.34v-2.045c0-1.307.47-2.43 1.407-3.367C30.707 7.47 31.83 7 33.136 7c1.307 0 2.43.469 3.367 1.406.937.938 1.406 2.06 1.406 3.367v2.045h.341c.284 0 .526.1.724.298.2.2.299.44.299.725z" fill="#FFF"/><path d="M31.41 13.818h5.454v-2.045c0-.753-.267-1.396-.8-1.929a2.628 2.628 0 0 0-1.928-.799c-.752 0-1.395.267-1.928.8a2.628 2.628 0 0 0-.799 1.928v2.045zm8.863 1.023v6.136c0 .284-.1.526-.299.725a.986.986 0 0 1-.724.298H29.023a.986.986 0 0 1-.725-.298.986.986 0 0 1-.298-.725v-6.136c0-.284.1-.526.298-.725a.986.986 0 0 1 .725-.298h.34v-2.045c0-1.307.47-2.43 1.407-3.367C31.707 7.47 32.83 7 34.136 7c1.307 0 2.43.469 3.367 1.406.937.938 1.406 2.06 1.406 3.367v2.045h.341c.284 0 .526.1.724.298.2.2.299.44.299.725z" fill="#1A9BDB"/></g></svg>