<?xml version="1.0" encoding="UTF-8"?>
<svg width="24px" height="18px" viewBox="0 0 24 18" version="1.1" xmlns="http://www.w3.org/2000/svg" xmlns:xlink="http://www.w3.org/1999/xlink">
    <!-- Generator: sketchtool 42 (36781) - http://www.bohemiancoding.com/sketch -->
    <title>26FE9B50-AB44-4BC3-888E-819CD52ACED5</title>
    <desc>Created with sketchtool.</desc>
    <defs></defs>
    <g id="New-offer-model---third-iteration" stroke="none" stroke-width="1" fill="none" fill-rule="evenodd">
        <g id="Send-message-bar" transform="translate(-632.000000, -21.000000)" fill="#FFFFFF">
            <g id="Group-7">
                <g id="Group" transform="translate(644.000000, 30.000000) scale(1, -1) translate(-644.000000, -30.000000) translate(632.000000, 21.000000)">
                    <path d="M21.6687777,17.2058476 C20.5715322,16.8009293 15.3112657,14.8987433 9.97951423,12.9762379 C-0.638453726,9.14101968 0.00760404072,9.39733741 0.00760404072,8.97185488 C0.00760404072,8.82325425 0.0435913434,8.73096028 0.151063628,8.61810214 C0.294523215,8.45407838 3.56055454,6.20842173 3.70401413,6.1675382 C3.76546183,6.15211507 16.6442648,12.8888402 19.1719443,14.2578266 C19.3719554,14.3706847 19.5411202,14.4526966 19.5411202,14.4424145 C19.5411202,14.4269914 16.5316514,12.1710526 12.8504197,9.42818367 L6.15971911,4.43451701 L6.17514224,2.35288412 C6.18542433,0.384109373 6.19056537,0.261213959 6.28285934,0.158637905 C6.339166,0.0971901983 6.44174205,0.0509208092 6.51347185,0.0509208092 C6.60062477,0.0509208092 7.15952961,0.394391459 8.14391699,1.05073131 C8.96942164,1.59935407 9.65636294,2.05054182 9.67178607,2.05054182 C9.68206816,2.05054182 10.3690095,1.58907198 11.1945141,1.02527091 C12.5583594,0.0974350099 12.7172422,0 12.9121122,0 C13.081277,0 13.1632889,0.0308462594 13.281288,0.143459587 C13.3632999,0.220330424 13.8401929,0.9638232 14.3425463,1.7944689 C15.1063584,3.06602026 20.3103182,11.6483799 23.1915057,16.3908699 C23.6426935,17.1343627 24.0015872,17.7801756 23.9913052,17.826445 C23.9810231,17.8878927 23.9247164,17.92388 23.8221404,17.9290211 C23.7349874,17.9336725 22.8071515,17.6210481 21.6687777,17.2058476 L21.6687777,17.2058476 Z" id="Shape"></path>
                </g>
            </g>
        </g>
    </g>
</svg>