<svg xmlns="http://www.w3.org/2000/svg" width="24" height="24" viewBox="0 0 24 24">
  <g fill="none" fill-rule="evenodd" stroke="#AAB0B3">
    <path stroke-width="1.44" d="M8,5.99999999 C8,5.44791391 7.80468945,4.97656445 7.4140625,4.5859375 C7.02343555,4.19531055 6.55208609,4 5.99999999,4 C5.44791391,4 4.97656445,4.19531055 4.5859375,4.5859375 C4.19531055,4.97656445 4,5.44791391 4,5.99999999 C4,6.55208609 4.19531055,7.02343555 4.5859375,7.4140625 C4.97656445,7.80468945 5.44791391,8 5.99999999,8 C6.55208609,8 7.02343555,7.80468945 7.4140625,7.4140625 C7.80468945,7.02343555 8,6.55208609 8,5.99999999 Z"/>
    <path stroke-width="2.16" d="M23,14.0112211 C23,14.524315 22.8209039,14.9599543 22.4627062,15.3181519 L15.3326733,22.4627062 C14.9551137,22.8209039 14.514634,23 14.0112211,23 C13.4981273,23 13.062488,22.8209039 12.7042904,22.4627062 L2.32145215,12.0653466 C1.95357352,11.707149 1.64136542,11.2182649 1.38481849,10.5986798 C1.12827154,9.97909489 1,9.41276385 1,8.89966998 L1,2.85874588 C1,2.35533302 1.18393655,1.91969382 1.55181518,1.55181518 C1.91969382,1.18393655 2.35533302,1 2.85874588,1 L8.89966998,1 C9.41276385,1 9.97909489,1.12827154 10.5986798,1.38481849 C11.2182649,1.64136542 11.7119893,1.95357352 12.079868,2.32145215 L22.4627062,12.689769 C22.8209039,13.0673286 23,13.5078083 23,14.0112211 Z"/>
  </g>
</svg>
