<svg width="17" height="16" viewBox="0 0 17 16" xmlns="http://www.w3.org/2000/svg"><title>EFECC7BA-D01E-4771-AF79-DCFC19BBFE79</title><path d="M17 6.929c0 1.1-.38 2.117-1.138 3.05-.76.932-1.79 1.67-3.093 2.21S10.043 13 8.5 13c-.443 0-.901-.025-1.376-.076a10.37 10.37 0 0 1-4.363 2.296c-.31.088-.67.158-1.082.209a.372.372 0 0 1-.29-.086.477.477 0 0 1-.165-.275v-.01c-.02-.025-.02-.063-.005-.113a.254.254 0 0 0 .019-.095c-.003-.013.011-.043.043-.09l.057-.086a1.924 1.924 0 0 1 .142-.166 137.061 137.061 0 0 1 .621-.688 4.97 4.97 0 0 0 .294-.374c.13-.177.233-.338.309-.484.076-.145.161-.332.256-.56a6.03 6.03 0 0 0 .246-.72c-.992-.564-1.775-1.26-2.347-2.088C.286 8.766 0 7.877 0 6.93 0 6.106.225 5.32.674 4.57a6.471 6.471 0 0 1 1.811-1.94c.76-.544 1.664-.975 2.714-1.295 1.05-.32 2.15-.479 3.301-.479 1.543 0 2.966.27 4.269.811s2.334 1.278 3.093 2.21C16.62 4.812 17 5.829 17 6.929z" fill="#1DCCCC" fill-rule="evenodd"/></svg>