<svg width="21" height="21" viewBox="0 0 21 21" xmlns="http://www.w3.org/2000/svg"><title>83C497CE-EBA3-4EEE-B59B-B0593532A014</title><path d="M17.143 15.429c0-.465-.17-.866-.51-1.206a1.647 1.647 0 0 0-1.204-.509c-.465 0-.866.17-1.206.51-.34.339-.509.74-.509 1.205 0 .464.17.866.51 1.205.339.34.74.509 1.205.509.464 0 .866-.17 1.205-.51.34-.338.509-.74.509-1.204zM6.857 5.143c0-.464-.17-.866-.509-1.205a1.647 1.647 0 0 0-1.205-.51c-.464 0-.866.17-1.205.51-.34.339-.51.74-.51 1.205 0 .464.17.866.51 1.205.339.34.74.51 1.205.51.464 0 .866-.17 1.205-.51.34-.34.51-.74.51-1.205zm13.714 10.286c0 1.42-.502 2.631-1.506 3.636-1.005 1.004-2.217 1.506-3.636 1.506-1.42 0-2.632-.502-3.637-1.506-1.004-1.005-1.506-2.217-1.506-3.636 0-1.42.502-2.632 1.506-3.637 1.005-1.004 2.217-1.506 3.637-1.506s2.631.502 3.636 1.506c1.004 1.005 1.506 2.217 1.506 3.637zM19.286.857a.855.855 0 0 1-.174.51L4.969 20.222a.804.804 0 0 1-.683.348H2.143a.824.824 0 0 1-.603-.254.824.824 0 0 1-.254-.603c0-.178.058-.348.174-.509L15.603.348A.804.804 0 0 1 16.286 0h2.143c.232 0 .433.085.602.254.17.17.255.371.255.603zm-9 4.286c0 1.42-.503 2.632-1.507 3.636s-2.216 1.507-3.636 1.507-2.632-.503-3.636-1.507C.502 7.775 0 6.563 0 5.143S.502 2.51 1.507 1.507C2.51.502 3.723 0 5.143 0s2.632.502 3.636 1.507c1.004 1.004 1.507 2.216 1.507 3.636z" fill="#1A9BDB" fill-rule="evenodd"/></svg>