<?xml version="1.0" encoding="UTF-8" standalone="no"?>
<svg width="26px" height="24px" viewBox="0 0 26 24" version="1.1" xmlns="http://www.w3.org/2000/svg" xmlns:xlink="http://www.w3.org/1999/xlink">
    <!-- Generator: sketchtool 41.1 (35376) - http://www.bohemiancoding.com/sketch -->
    <title>A2AFACD6-20F2-413F-B84A-EA6EA309AEEF</title>
    <desc>Created with sketchtool.</desc>
    <defs></defs>
    <g id="Symbols" stroke="none" stroke-width="1" fill="none" fill-rule="evenodd">
        <g id="USP-section" transform="translate(-720.000000, -221.000000)" fill="#1A9BDB">
            <g id="Group-3" transform="translate(644.000000, 213.000000)">
                <g id="users" transform="translate(76.000000, 8.000000)">
                    <g id="group-profile-users">
                        <g id="Capa_1">
                            <g id="Group">
                                <path d="M5.13909375,6.8649375 C6.08498437,6.8649375 6.8923125,6.53048437 7.5613125,5.86129687 C8.23054687,5.19215625 8.5651875,4.38459375 8.5651875,3.43889062 C8.5651875,2.49328125 8.23054687,1.68571875 7.5613125,1.01648437 C6.8923125,0.34734375 6.0849375,0.012703125 5.13909375,0.012703125 C4.19329687,0.012703125 3.38592187,0.34734375 2.71678125,1.01648437 C2.0476875,1.68571875 1.71304687,2.49309375 1.71304687,3.43889062 C1.71304687,4.38478125 2.0476875,5.19215625 2.71678125,5.86129687 C3.38592187,6.53029687 4.19329687,6.8649375 5.13909375,6.8649375 Z" id="Shape"></path>
                                <path d="M9.21417187,12.2118281 C10.2179062,13.2152344 11.4289219,13.7171719 12.8477344,13.7171719 C14.2665937,13.7171719 15.4775625,13.2152344 16.48125,12.2118281 C17.4847969,11.2077656 17.9867344,9.99660938 17.9867344,8.57807813 C17.9867344,7.15945313 17.4847969,5.94834375 16.48125,4.9445625 C15.4775625,3.94078125 14.2665937,3.43889063 12.8477344,3.43889063 C11.4289219,3.43889063 10.2178125,3.940875 9.21417187,4.9445625 C8.21053125,5.94820313 7.70854687,7.1593125 7.70854687,8.57807813 C7.70854687,9.99684375 8.21053125,11.2079063 9.21417187,12.2118281 Z" id="Shape"></path>
                                <path d="M20.5567031,6.8649375 C21.5021719,6.8649375 22.3096875,6.53048437 22.9787812,5.86129687 C23.647875,5.19215625 23.9823281,4.38459375 23.9823281,3.43889062 C23.9823281,2.49328125 23.647875,1.68571875 22.9787812,1.01648437 C22.3097344,0.34734375 21.5021719,0.012703125 20.5567031,0.012703125 C19.6105781,0.012703125 18.80325,0.34734375 18.1341094,1.01648437 C17.4651562,1.68571875 17.1305625,2.49309375 17.1305625,3.43889062 C17.1305625,4.38478125 17.4652031,5.19215625 18.1341094,5.86129687 C18.80325,6.53029687 19.6105781,6.8649375 20.5567031,6.8649375 Z" id="Shape"></path>
                                <path d="M24.0357656,6.865125 C23.9825156,6.865125 23.7884531,6.95882812 23.4538125,7.1461875 C23.1195,7.33364062 22.6843125,7.52325 22.1491406,7.71510937 C21.6140156,7.90678125 21.082875,8.00273437 20.5567031,8.00273437 C19.9586719,8.00273437 19.3657969,7.90021875 18.7767188,7.69490625 C18.8210156,8.02485937 18.8434688,8.319375 18.8434688,8.578125 C18.8434688,9.81829687 18.4820625,10.9602656 17.7590625,12.0041719 C19.2047344,12.0489375 20.3866875,12.6198281 21.306,13.7175469 L23.09925,13.7175469 C23.8307344,13.7175469 24.4463906,13.5364687 24.9459375,13.1752031 C25.4454844,12.814125 25.6954219,12.2852344 25.6954219,11.5894219 C25.6955625,8.43970312 25.142625,6.8649375 24.0357656,6.865125 Z" id="Shape"></path>
                                <path d="M22.03575,17.6851875 C21.9420469,17.1631875 21.8236875,16.6790625 21.6809063,16.2330937 C21.538125,15.7867969 21.3462656,15.352125 21.1057031,14.9282812 C20.8647188,14.5048125 20.5880156,14.1432187 20.2757344,13.8442031 C19.9632188,13.5451875 19.58175,13.3068281 19.1313281,13.1281406 C18.6809063,12.9497344 18.1832813,12.8605781 17.6391563,12.8605781 C17.5498125,12.8605781 17.3580938,12.9565312 17.063625,13.1483906 C16.7691094,13.3400625 16.44375,13.5545625 16.0867031,13.7906719 C15.72975,14.0267812 15.2528438,14.2410937 14.6546719,14.4329531 C14.0564531,14.6248125 13.4542969,14.7207656 12.8479219,14.7207656 C12.2413125,14.7207656 11.6389688,14.6248125 11.0411719,14.4329531 C10.4432344,14.2410937 9.96604688,14.0267812 9.60914063,13.7906719 C9.25214063,13.5545625 8.92659375,13.3400625 8.63221875,13.1483906 C8.33770313,12.9565312 8.14598438,12.8605781 8.05664063,12.8605781 C7.51246875,12.8605781 7.01507813,12.9497344 6.56446875,13.1281406 C6.11385938,13.3068281 5.73248438,13.5451875 5.42025,13.8442031 C5.10773438,14.1428906 4.83140625,14.5048125 4.59032813,14.9282812 C4.34953125,15.352125 4.15771875,15.7867969 4.0149375,16.2330937 C3.87220313,16.6790625 3.754125,17.1631875 3.66028125,17.6851875 C3.56653125,18.2071875 3.50414063,18.6932344 3.47292188,19.1439844 C3.44165625,19.5945937 3.42609375,20.0564531 3.42609375,20.5293281 C3.42609375,21.5997656 3.75164063,22.4452969 4.40292188,23.0651719 C5.0544375,23.685 5.9199375,23.9952656 6.99928125,23.9952656 L18.6962344,23.9952656 C19.7756719,23.9952656 20.6410781,23.685 21.2927344,23.0651719 C21.9440156,22.4452969 22.2696563,21.5997656 22.2696563,20.5293281 C22.2696563,20.0564531 22.2539531,19.5947344 22.2231563,19.1439844 C22.1914688,18.6932344 22.1290781,18.2071406 22.03575,17.6851875 Z" id="Shape"></path>
                                <path d="M7.93607812,12.004125 C7.21335937,10.9602187 6.85209375,9.81825 6.85223437,8.57807812 C6.85223437,8.31932812 6.87459375,8.025 6.919125,7.69485937 C6.3301875,7.90003125 5.73689062,8.0026875 5.13909375,8.0026875 C4.6126875,8.0026875 4.08196875,7.90678125 3.5465625,7.7150625 C3.01139062,7.52320312 2.57629687,7.33359375 2.24184375,7.14614062 C1.90725,6.95878125 1.71304687,6.86507812 1.6595625,6.86507812 C0.553171875,6.865125 0,8.43989062 0,11.589375 C0,12.2851875 0.24984375,12.8140781 0.749390625,13.1751562 C1.24907812,13.5364219 1.86473438,13.7171719 2.596125,13.7171719 L4.3895625,13.7171719 C5.30864063,12.6197812 6.49064063,12.0488437 7.93607812,12.004125 Z" id="Shape"></path>
                            </g>
                        </g>
                    </g>
                </g>
            </g>
        </g>
    </g>
</svg>