<svg width="24" height="24" viewBox="0 0 24 24" fill="none" xmlns="http://www.w3.org/2000/svg">
<path d="M3.11026 10.7787C3.21879 10.8724 3.39115 10.9599 3.42307 11.0724C3.45499 11.1848 3.37839 11.4097 3.28263 11.466C2.12712 12.1345 1.87814 13.2279 1.79515 14.4025C1.78877 14.5087 1.79515 14.6087 1.78877 14.7149C1.76323 14.9336 1.62917 15.0898 1.41849 15.0523C1.27805 15.0273 1.08652 14.8774 1.0546 14.7461C0.767324 13.5278 1.6547 11.5597 2.75275 10.9349C2.84213 10.8849 2.95066 10.8474 3.11026 10.7787ZM2.71445 14.6587C2.71445 14.9086 2.8549 15.0523 3.09749 15.0648C3.34008 15.0773 3.45499 14.9211 3.48053 14.6899C3.4933 14.5525 3.4933 14.4213 3.51245 14.2838C3.58906 13.6028 3.76143 12.978 4.43813 12.6093C4.62965 12.5031 4.68711 12.2845 4.55943 12.1283C4.47005 12.022 4.24661 11.9533 4.09978 11.9783C3.94018 12.0033 3.78058 12.1408 3.6529 12.2532C2.95704 12.8655 2.7719 13.6777 2.71445 14.4837C2.71445 14.5774 2.71445 14.6212 2.71445 14.6587ZM20.8897 10.7787C20.7812 10.8724 20.6088 10.9599 20.5769 11.0724C20.545 11.1848 20.6216 11.4097 20.7174 11.466C21.8729 12.1345 22.1219 13.2279 22.2048 14.4025C22.2112 14.5087 22.2048 14.6087 22.2112 14.7149C22.2368 14.9336 22.3708 15.0898 22.5815 15.0523C22.722 15.0273 22.9135 14.8774 22.9454 14.7461C23.2327 13.5278 22.3453 11.5597 21.2472 10.9349C21.1579 10.8849 21.043 10.8474 20.8897 10.7787ZM21.2792 14.4837C21.2217 13.6777 21.0366 12.8718 20.3407 12.2657C20.2067 12.147 20.0534 12.0158 19.8938 11.9908C19.747 11.9658 19.5236 12.0345 19.4342 12.1408C19.3001 12.297 19.3576 12.5156 19.5555 12.6218C20.2322 12.9905 20.4046 13.6153 20.4812 14.2963C20.4939 14.4275 20.5003 14.565 20.5131 14.7024C20.5322 14.9273 20.6535 15.0898 20.8961 15.0773C21.1387 15.0648 21.2792 14.9211 21.2792 14.6712C21.2792 14.6212 21.2792 14.5774 21.2792 14.4837ZM15.0803 19.1384C14.7994 19.051 14.6781 19.2322 14.6015 19.4633C14.2376 20.5755 13.1715 21.319 12.0032 21.3252C10.8349 21.3252 9.7624 20.5755 9.4049 19.4633C9.32829 19.2322 9.20061 19.051 8.9261 19.1384C8.6452 19.2322 8.67712 19.4508 8.74096 19.682C9.14954 21.0191 10.5285 22 12.0032 22C13.4779 22 14.8568 21.0253 15.2654 19.682C15.3293 19.4508 15.3612 19.2322 15.0803 19.1384ZM20.462 18.0326C20.3918 18.345 20.1492 18.4887 19.8555 18.5511C19.6704 18.5886 19.4789 18.6074 19.2874 18.6074C16.8614 18.6074 14.4291 18.6074 12.0032 18.6074C9.57727 18.6074 7.14496 18.6074 4.71903 18.6074C4.52751 18.6074 4.33599 18.5886 4.15085 18.5511C3.85719 18.4887 3.60821 18.345 3.54437 18.0326C3.47415 17.7139 3.56991 17.4328 3.8125 17.2141C4.30407 16.758 4.78925 16.2894 5.30636 15.8583C5.83623 15.4209 6.08521 14.8836 6.11074 14.2088C6.15543 12.8905 6.23843 11.5722 6.31503 10.2539C6.35334 9.56036 6.32142 8.84809 6.46825 8.17331C6.94705 5.98029 8.33238 4.56201 10.5221 3.90597C10.7647 3.831 10.8605 3.73728 10.8285 3.49986C10.8158 3.39989 10.8285 3.29368 10.8221 3.18746C10.7838 2.3065 11.3584 1.98786 12.0096 2.00035C12.6607 1.98786 13.2353 2.3065 13.197 3.18746C13.1906 3.29368 13.2098 3.39989 13.1906 3.49986C13.1587 3.73728 13.2608 3.831 13.4971 3.90597C15.6804 4.56201 17.0721 5.98029 17.5509 8.17331C17.6977 8.84809 17.6658 9.56036 17.7041 10.2539C17.7807 11.5722 17.8573 12.8905 17.9084 14.2088C17.9339 14.8898 18.1829 15.4209 18.7128 15.8583C19.2299 16.2894 19.7151 16.758 20.2067 17.2141C20.4365 17.439 20.5322 17.7202 20.462 18.0326ZM19.8045 17.8014C19.3767 17.4078 18.9682 17.0454 18.5723 16.6705C18.2595 16.3706 17.9276 16.0832 17.6722 15.7458C17.4871 15.5084 17.3275 15.2022 17.3083 14.9148C17.1742 13.0467 17.0657 11.1786 16.9763 9.31044C16.8742 7.20488 15.9038 5.66789 13.9375 4.78068C13.5545 4.61199 13.1268 4.53701 12.7182 4.4308C12.5586 4.39331 12.4884 4.32458 12.4948 4.15589C12.5075 3.81225 12.5011 3.46862 12.4948 3.12498C12.4884 2.79384 12.3671 2.68138 11.9968 2.68138C11.6265 2.68138 11.5052 2.79384 11.4989 3.12498C11.4925 3.46862 11.4925 3.81225 11.4989 4.15589C11.5052 4.32458 11.435 4.38706 11.2754 4.4308C10.8668 4.53077 10.4391 4.60574 10.0561 4.78068C8.08979 5.66789 7.11942 7.20488 7.01728 9.31044C6.9279 11.1786 6.81937 13.0467 6.68531 14.9148C6.66615 15.2022 6.50017 15.5146 6.32142 15.7458C6.05967 16.0832 5.73409 16.3706 5.42127 16.6705C5.02546 17.0454 4.62327 17.4078 4.18916 17.8014C4.36791 17.8889 8.17917 17.9388 11.9904 17.9388C15.8081 17.9326 19.6193 17.8889 19.8045 17.8014Z" fill="#1A9BDB"/>
</svg>
